<svg width="36" height="26" viewBox="0 0 36 26" fill="none" xmlns="http://www.w3.org/2000/svg">
<mask id="mask0_3_227" style="mask-type:luminance" maskUnits="userSpaceOnUse" x="0" y="0" width="36" height="26">
<rect width="36" height="26" rx="4" fill="white"/>
</mask>
<g mask="url(#mask0_3_227)">
<path d="M40 -3L-4 -2.99952V29H40V-3Z" fill="#006233"/>
<path fill-rule="evenodd" clip-rule="evenodd" d="M14.3355 13.5739C13.7626 14.4279 14.1762 14.9833 14.7668 15.0228C15.156 15.0514 15.9655 14.4762 15.9633 13.8L15.7421 13.6771C15.866 14.024 15.7377 14.1337 15.4745 14.3708C14.9548 14.8384 13.8931 14.8714 14.3355 13.5739Z" fill="white"/>
<path fill-rule="evenodd" clip-rule="evenodd" d="M18.8762 15.8132C22.1009 15.9032 23.1271 12.8055 21.1366 10.1536L20.9397 10.4455C21.068 11.6815 21.2538 12.8999 21.2715 14.1667C20.8822 14.6211 20.316 14.452 20.2032 13.9471C20.2098 13.2622 19.9842 12.6826 19.6989 12.1294L19.5397 12.4213C19.7255 12.8758 19.9267 13.3873 19.9688 13.9471C19.0487 15.0426 18.0313 15.2643 18.4095 13.8242C17.6818 15.0865 18.7833 15.9756 20.0307 14.0327C20.2983 15.3587 21.3334 14.5355 21.3953 14.2501C21.5081 13.3807 21.4506 11.9801 21.2228 10.8736C22.1208 12.417 22.1518 13.53 21.674 14.2742C21.1432 15.1019 19.9887 15.4883 18.8762 15.8132Z" fill="white"/>
<path fill-rule="evenodd" clip-rule="evenodd" d="M20.7053 12.3116C20.0152 12.3621 19.6613 12.2216 20.0351 11.7144C20.4045 11.2183 20.7495 11.6135 20.8424 12.2765C20.9287 12.8977 19.6304 13.6903 19.1814 13.6903C18.5024 13.6903 18.1883 12.8231 18.8142 12.0438C18.0092 14.3181 20.5527 12.9987 20.7053 12.3116ZM20.2275 11.7847C20.1435 11.7803 20.0816 11.9274 20.1236 11.9559C20.2452 12.0394 20.4377 11.9889 20.4576 11.9472C20.4996 11.855 20.3448 11.7891 20.2275 11.7847Z" fill="white"/>
<path fill-rule="evenodd" clip-rule="evenodd" d="M16.9586 13.3851C16.2951 14.6804 16.9564 15.216 17.8079 15.0668C18.3033 14.9767 18.9315 14.6277 19.2942 14.1513C19.3008 13.1019 19.2853 12.0613 19.1924 11.0449C19.5242 10.6519 19.1637 10.6541 19.0376 10.2326C18.9801 10.4785 18.8408 10.7441 18.9757 10.9351C19.0708 11.9603 19.1239 12.9987 19.1217 14.0569C18.4537 14.5904 17.9517 14.7879 17.5934 14.7836C16.8524 14.777 16.6932 14.1579 16.9586 13.3851Z" fill="white"/>
<path fill-rule="evenodd" clip-rule="evenodd" d="M18.3144 13.7276C18.3033 12.7507 18.2878 11.642 18.1994 10.9593C18.5444 10.5795 18.1817 10.5707 18.0689 10.1448C18.0025 10.3863 17.8566 10.6497 17.9848 10.8451C18.0423 11.8901 18.0976 12.9351 18.1087 13.9801C18.1883 13.9296 18.279 13.9098 18.3144 13.7276Z" fill="white"/>
<path fill-rule="evenodd" clip-rule="evenodd" d="M15.7399 13.6815C15.6559 13.5761 15.5962 13.4576 15.5276 13.3544C15.5165 13.2073 15.6161 13.0712 15.6293 12.9965C15.7421 13.17 15.8085 13.3017 15.8992 13.3873M16.0186 13.4554C16.1845 13.5212 16.388 13.5212 16.576 13.5256C17.3014 13.5388 18.0645 13.4202 17.9826 14.395C17.9118 15.2599 17.1886 15.7605 16.5406 15.7539C15.6183 15.7451 14.8309 14.7353 16.253 12.8758C16.3902 12.8538 16.5693 12.8912 16.7175 12.9043C16.9719 12.9241 17.2328 12.8999 17.5314 12.6628C17.496 12.0503 17.496 11.4708 17.4208 10.9175C17.2926 10.7222 17.4385 10.4609 17.5049 10.2172C17.6177 10.6431 17.9782 10.6519 17.6354 11.0339C17.7172 11.6486 17.7261 12.2743 17.7261 12.6475C17.5535 12.9087 17.4186 13.1853 16.9144 13.2907C16.399 13.2161 16.1668 12.5004 15.6293 12.7375C15.7775 12.0921 17.1422 11.945 17.2793 12.4543C17.1886 12.9856 15.9146 12.7726 15.5763 14.4894C15.4723 15.0185 16.0341 15.5058 16.6113 15.4663C17.1753 15.429 17.7769 15.0404 17.8366 14.3862C17.8831 13.8396 17.1068 13.9032 16.7816 13.9098C16.3083 13.9208 16.0098 13.8483 15.8306 13.7452M16.315 12.5619C16.399 12.4828 16.6932 12.4279 16.7993 12.5553C16.7197 12.608 16.6423 12.665 16.5782 12.7331C16.4676 12.676 16.3946 12.6189 16.315 12.5619Z" fill="white"/>
<path fill-rule="evenodd" clip-rule="evenodd" d="M17.036 10.7463C17.1156 10.9219 17.1488 11.0383 17.1532 11.2073C17.1046 11.4356 16.9077 11.6486 16.7042 11.6552C16.5782 11.6596 16.4366 11.6244 16.3371 11.4291C16.326 11.4049 16.2729 11.3478 16.2221 11.3742C15.9987 11.7386 15.8328 11.8923 15.6315 11.8901C15.229 11.8835 15.3484 11.5278 14.9769 11.4181C14.822 11.4137 14.5677 11.5696 14.4372 11.8747C13.9418 13.2688 13.4906 11.8703 13.683 11.2205C13.7118 11.8418 13.8622 12.2106 14.017 12.1996C14.1298 12.1886 14.2293 11.9296 14.3731 11.6574C14.4836 11.4488 14.7491 11.0734 15.03 11.0734C15.2865 11.08 15.1251 11.5476 15.6382 11.541C15.8859 11.5366 16.1137 11.3478 16.3437 10.9702C16.3946 10.9614 16.4079 11.0515 16.4189 11.0822C16.4543 11.2117 16.6799 11.5674 16.9851 11.2424C16.9696 11.1722 16.9763 11.0558 16.8989 11.0317L17.036 10.7463Z" fill="white"/>
<path fill-rule="evenodd" clip-rule="evenodd" d="M18.6484 9.59155C18.3763 9.72547 18.1773 9.60252 18.0645 9.48398C18.2613 9.44446 18.4139 9.37421 18.4581 9.22053C18.3697 9.02295 18.1596 8.93733 17.8632 8.93514C17.4673 8.94612 17.2638 9.10418 17.2395 9.32152C17.4231 9.32811 17.5889 9.27761 17.6597 9.45324C17.3346 9.61131 16.952 9.66839 16.5361 9.66619C15.8549 9.70132 15.7554 9.39616 15.5762 9.12833C15.563 9.11077 15.5033 9.08223 15.4723 9.08662C15.2622 9.08662 15.1074 9.81547 14.8707 9.81328C14.634 9.78254 14.6871 9.34348 14.6186 9.09321C14.5611 9.48618 14.6916 10.9483 15.4236 9.36104C15.4458 9.30835 15.4767 9.32372 15.4966 9.36763C15.6935 9.81109 16.0938 9.96476 16.5251 9.98671C16.8856 10.0065 17.3456 9.8506 17.8389 9.57399C17.9694 9.71669 18.0733 9.87914 18.3476 9.90988C18.6683 9.92524 19.0111 9.69473 19.0885 9.40934C19.1283 9.26225 19.1349 8.97246 18.9779 8.96807C18.7589 8.96148 18.5997 9.48837 18.6506 9.96256C18.655 9.95598 18.6793 9.84402 18.6793 9.84402M17.7106 9.21175C17.8543 9.14589 17.9937 9.11516 18.1043 9.26005C18.018 9.29079 17.9649 9.31054 17.9185 9.34787C17.8566 9.29957 17.7725 9.27542 17.7106 9.21175ZM18.7678 9.53886C18.8032 9.38299 18.8231 9.25786 18.9514 9.17663C18.9779 9.34128 18.9823 9.43348 18.7678 9.53886Z" fill="white"/>
<path fill-rule="evenodd" clip-rule="evenodd" d="M19.6304 9.78035C19.5883 9.64643 19.5463 9.53008 19.5331 9.38518C19.5021 9.09101 19.7564 8.92416 19.9865 8.94831C20.2231 8.97246 20.3802 9.06028 20.6057 9.13711C20.7827 9.19639 21.0216 9.24249 21.2494 9.30616C21.3776 9.36323 21.2494 9.51252 21.2162 9.53228C20.6456 9.75401 20.2408 10.1053 19.8781 10.1206C19.6613 10.1316 19.4689 9.9911 19.2942 9.70351C19.2831 9.14589 19.2632 8.49168 19.2079 8.08115C19.292 7.99773 19.3097 7.93626 19.3495 7.8682C19.3937 8.41045 19.4114 8.98124 19.4225 9.55642C19.4689 9.65521 19.5264 9.73864 19.6304 9.78035ZM19.9953 9.82426C19.6901 9.90987 19.7277 9.65302 19.6989 9.49495C19.6658 9.31054 19.6879 9.10198 19.9245 9.15467C20.232 9.2359 20.5129 9.34347 20.7849 9.45763L19.9953 9.82426Z" fill="white"/>
<path fill-rule="evenodd" clip-rule="evenodd" d="M19.6967 10.0965L19.7387 10.3006H19.7719L19.7587 10.1096" fill="white"/>
<path fill-rule="evenodd" clip-rule="evenodd" d="M14.8287 12.2304L14.9835 12.0723L15.1627 12.2238L14.9968 12.3709L14.8287 12.2304Z" fill="white"/>
<path fill-rule="evenodd" clip-rule="evenodd" d="M15.2224 12.1777L15.3794 12.0196L15.5586 12.1711L15.3927 12.3182L15.2224 12.1777Z" fill="white"/>
<path fill-rule="evenodd" clip-rule="evenodd" d="M14.1276 10.5399L14.2846 10.3819L14.4637 10.5334L14.2979 10.6804L14.1276 10.5399Z" fill="white"/>
<path fill-rule="evenodd" clip-rule="evenodd" d="M14.1983 11.0054L14.3554 10.8473L14.5323 10.9988L14.3664 11.1459L14.1983 11.0054Z" fill="white"/>
<path fill-rule="evenodd" clip-rule="evenodd" d="M17.0404 11.7847L17.1842 11.6683L17.3169 11.811L17.1665 11.9164L17.0404 11.7847Z" fill="white"/>
<path fill-rule="evenodd" clip-rule="evenodd" d="M15.1427 8.80562L15.2445 8.70244L15.3617 8.80123L15.2533 8.89782L15.1427 8.80562Z" fill="white"/>
<path fill-rule="evenodd" clip-rule="evenodd" d="M15.4015 8.77268L15.5033 8.6673L15.6205 8.76829L15.5121 8.86269L15.4015 8.77268Z" fill="white"/>
<path fill-rule="evenodd" clip-rule="evenodd" d="M20.8336 9.95159L20.7362 10.0328L20.6433 9.93842L20.7451 9.86377L20.8336 9.95159Z" fill="white"/>
<path fill-rule="evenodd" clip-rule="evenodd" d="M16.2553 12.8648L16.2442 13.0382L16.5229 13.0646L16.7463 12.8977L16.2553 12.8648Z" fill="white"/>
<path fill-rule="evenodd" clip-rule="evenodd" d="M18.6108 9.62448L18.6926 9.60692L18.6837 9.83304L18.6329 9.85279L18.6108 9.62448Z" fill="white"/>
<path d="M18.0003 18.7272C21.1401 18.7272 23.6947 16.1916 23.6947 13.0756C23.6947 11.361 22.924 9.83112 21.7109 8.79697C22.4387 9.64699 22.8811 10.7661 22.8811 11.9843C22.8811 14.6905 20.6975 16.8859 18.0003 16.8859C15.3029 16.8859 13.1193 14.6905 13.1193 11.9843C13.1193 10.7661 13.5617 9.64699 14.2895 8.79697C13.0765 9.83112 12.3058 11.361 12.3058 13.0756C12.3058 16.1916 14.8605 18.7272 18.0003 18.7272Z" fill="white"/>
<path d="M17.2296 21.8715C15.9738 22.4947 14.404 22.3248 13.0767 21.4748C13.0197 21.4465 12.9911 21.489 13.0482 21.6448C13.1909 22.0556 13.3051 22.3814 12.877 22.9905C12.6914 23.2597 12.9055 23.3022 13.2195 23.2738C14.8178 23.118 16.3876 22.7639 17.144 22.4664L17.2296 21.8715Z" fill="white"/>
<path d="M17.2011 22.6081C16.7016 22.8064 15.8453 23.0472 14.8892 23.2172C14.5039 23.2738 14.5181 23.5147 15.2031 23.5996C15.9024 23.6705 16.8015 23.1747 17.3438 22.7356L17.2011 22.6081Z" fill="white"/>
<path d="M18.0003 21.2482C18.1715 21.2482 18.4855 21.1774 18.7995 21.1349C19.3846 21.0357 18.9564 21.9281 18.0003 21.9281V22.2256C18.9707 22.2256 19.984 21.1774 19.7699 20.7099C19.4702 20.0299 18.6425 20.6107 18.0003 20.6107C17.3581 20.6107 16.5304 20.0299 16.2307 20.7099C16.0166 21.1774 17.0298 22.2256 18.0003 22.2256V21.9281C17.0441 21.9281 16.616 21.0357 17.2011 21.1349C17.5151 21.1774 17.829 21.2482 18.0003 21.2482Z" fill="white"/>
<path d="M18.7709 21.8715C20.0268 22.4947 21.5966 22.3248 22.9238 21.4748C22.9809 21.4465 23.0094 21.489 22.9524 21.6448C22.8096 22.0556 22.6955 22.3814 23.1236 22.9905C23.3091 23.2597 23.0951 23.3022 22.7811 23.2738C21.1827 23.118 19.6129 22.7639 18.8566 22.4664L18.7709 21.8715Z" fill="white"/>
<path d="M18.7995 22.6081C19.299 22.8064 20.1409 23.0472 21.1114 23.2172C21.4967 23.2738 21.4824 23.5147 20.7974 23.5996C20.0981 23.6705 19.1991 23.1747 18.6568 22.7356L18.7995 22.6081Z" fill="white"/>
<path d="M18.0431 22.4664C18.0716 22.7072 18.1145 23.2313 18.4427 23.0047C18.8851 22.7072 18.985 22.4806 18.985 22.0556C18.985 21.7865 18.6568 21.3898 18.0003 21.3898C17.3438 21.3898 17.0156 21.7865 17.0156 22.0556C17.0156 22.4806 17.1155 22.7072 17.5579 23.0047C17.8861 23.2313 17.9147 22.7072 17.9575 22.4664C17.9717 22.3814 18.0431 22.4097 18.0431 22.4664Z" fill="white"/>
<path d="M17.5864 4.32042C17.4009 3.27217 15.8453 3.20135 15.6027 3.03136C15.3173 2.84721 15.3601 3.03136 15.46 3.31467C15.7454 4.05127 16.7159 4.34875 17.1583 4.43374C17.5151 4.4904 17.6292 4.51874 17.5864 4.32042Z" fill="white"/>
<path d="M18.0574 4.34875C18.2143 3.27217 16.6731 2.76222 16.4875 2.5214C16.2735 2.26642 16.2449 2.42224 16.3448 2.71972C16.5304 3.35717 17.2011 4.10794 17.6007 4.30625C17.9289 4.47624 18.0288 4.54707 18.0574 4.34875Z" fill="white"/>
<path d="M19.3275 4.97203C19.4702 3.68297 18.2143 3.48466 17.8861 3.07386C17.672 2.81888 17.6578 2.96053 17.7291 3.25801C17.8718 3.90962 18.4998 4.67456 18.8851 4.91537C19.1848 5.09952 19.3132 5.17035 19.3275 4.97203Z" fill="white"/>
<path d="M18.9422 4.68872C17.6435 3.85296 16.7302 4.32042 16.3591 4.27792C16.0023 4.23543 15.8882 4.46207 16.5018 4.80204C17.2582 5.21284 18.3142 5.15618 18.7281 5.00036C19.1562 4.83038 19.0278 4.74538 18.9422 4.68872Z" fill="white"/>
<path d="M20.8973 5.25534C20.4977 3.86712 19.5701 4.09377 19.299 3.92379C19.0278 3.7538 18.9993 3.7963 19.0563 4.10794C19.1705 4.66039 20.1267 5.26951 20.5976 5.45366C20.7689 5.51032 20.9829 5.59531 20.8973 5.25534Z" fill="white"/>
<path d="M20.7118 5.49615C19.5986 4.60373 18.7281 5.26951 18.3856 5.17035C18.1287 5.09952 18.2429 5.26951 18.3428 5.34033C19.0563 5.83613 19.9412 6.10527 20.6262 5.79363C20.8973 5.68031 20.9116 5.65197 20.7118 5.49615Z" fill="white"/>
<path d="M23.1236 6.40275C23.1379 5.52449 21.3112 5.15618 20.9259 4.61789C20.6975 4.29209 20.4977 4.46207 20.6119 4.9862C20.7831 5.66614 22.039 6.41691 22.724 6.55857C23.1379 6.64356 23.1236 6.5019 23.1236 6.40275Z" fill="white"/>
<path d="M23.0665 6.55857C21.9106 5.52448 20.9401 5.86446 20.5834 5.7653C20.2266 5.68031 20.0839 5.89279 20.6404 6.31775C21.3255 6.82771 22.3815 6.92687 22.8239 6.82771C23.2663 6.72855 23.1522 6.62939 23.0665 6.55857Z" fill="white"/>
<path d="M25.1358 8.07427C24.8076 6.57273 23.7658 6.26109 23.5089 5.97778C23.2663 5.69447 23.0094 5.77946 23.2235 6.45941C23.4804 7.26684 24.3224 7.97512 24.7648 8.1451C25.1929 8.32925 25.1644 8.1876 25.1358 8.07427Z" fill="white"/>
<path d="M25.1216 8.27259C24.2796 6.92687 23.1807 6.96936 22.8382 6.78521C22.51 6.5869 22.2816 6.75688 22.724 7.33767C23.2378 8.04594 24.2938 8.44258 24.7791 8.47091C25.2643 8.49924 25.1787 8.37175 25.1216 8.27259Z" fill="white"/>
<path d="M26.2062 9.87329C26.6914 8.34342 25.5782 7.7768 25.4641 7.52182C25.3356 7.26684 25.2072 7.26684 25.1358 7.53598C24.8219 8.62673 25.8351 9.68914 25.9921 9.90162C26.1491 10.0999 26.1776 10.0008 26.2062 9.87329Z" fill="white"/>
<path d="M25.9778 10.2983C25.5925 8.58423 24.5793 8.68339 24.3509 8.44258C24.1083 8.20176 24.0798 8.37175 24.1226 8.68339C24.2368 9.51915 25.25 10.0858 25.7067 10.3691C25.8494 10.4541 26.0206 10.5532 25.9778 10.2983Z" fill="white"/>
<path d="M26.9483 12.3098C27.6476 10.6949 26.8198 9.60415 26.5629 9.36333C26.3061 9.13668 26.1491 9.03753 26.2347 9.36333C26.3489 9.85912 25.9493 11.134 26.5629 12.0689C26.7627 12.3806 26.7913 12.6781 26.9483 12.3098Z" fill="white"/>
<path d="M26.5772 12.6356C26.7342 11.644 26.1634 10.7374 25.5497 10.3832C25.1929 10.1708 25.1787 10.2274 25.1787 10.5249C25.2072 11.4457 26.0777 12.2106 26.3346 12.6356C26.5772 13.0322 26.563 12.7347 26.5772 12.6356Z" fill="white"/>
<path d="M26.4202 15.2137C25.9065 13.3438 26.9768 12.2673 27.305 12.0548C27.619 11.8281 27.8188 11.7431 27.6761 12.0973C27.462 12.6214 27.6904 14.0804 26.8769 15.0012C26.62 15.3128 26.5201 15.6386 26.4202 15.2137Z" fill="white"/>
<path d="M26.5344 14.8029C26.9625 13.1738 26.0349 12.2531 25.7495 12.0689C25.4783 11.8848 25.3071 11.814 25.4355 12.1114C25.6068 12.5647 25.4213 13.8396 26.1348 14.6329C26.3632 14.902 26.4488 15.1712 26.5344 14.8029Z" fill="white"/>
<path d="M26.0064 14.0379C25.2357 14.8595 25.2215 16.0636 25.564 16.7719C25.778 17.1827 25.8066 17.1544 26.0064 16.8569C26.5487 15.9928 26.2204 14.7462 26.249 14.1938C26.2633 13.6696 26.092 13.953 26.0064 14.0379Z" fill="white"/>
<path d="M27.2765 15.3412C27.2765 16.4744 26.5772 17.3952 25.8351 17.6785C25.407 17.8343 25.407 17.7918 25.4641 17.4518C25.6639 16.1769 26.6486 15.7095 27.0054 15.2987C27.3479 14.902 27.2765 15.2278 27.2765 15.3412Z" fill="white"/>
<path d="M24.6221 18.7126C25.8779 17.5793 25.2072 16.786 25.2643 16.0494C25.2928 15.6528 25.1358 15.752 24.9931 15.8936C24.1939 16.6727 24.1511 18.0609 24.3224 18.5992C24.3937 18.84 24.5079 18.8117 24.6221 18.7126Z" fill="white"/>
<path d="M26.3061 17.9759C25.8922 19.2225 24.7933 19.9874 23.8657 20.0299C23.3234 20.0583 23.3377 20.0158 23.5232 19.6475C24.2225 18.3159 25.4641 18.1601 26.0206 17.8201C26.5344 17.5085 26.3489 17.8485 26.3061 17.9759Z" fill="white"/>
<path d="M22.8953 20.3133C24.5222 19.5058 24.1939 18.1601 24.4936 17.8201C24.7077 17.5793 24.4508 17.6076 24.3224 17.6926C23.3662 18.2451 22.5956 19.1234 22.5813 20.0583C22.5813 20.4124 22.6099 20.4549 22.8953 20.3133Z" fill="white"/>
<path d="M20.669 21.8148C22.724 22.1406 23.6802 20.5966 24.2796 20.4549C24.5935 20.3841 24.3652 20.2566 24.2082 20.2424C22.8382 20.0866 21.0971 20.7241 20.5691 21.4323C20.355 21.7156 20.355 21.7723 20.669 21.8148Z" fill="white"/>
<path d="M22.7526 19.3925C22.3387 20.7382 20.7974 21.8431 19.6415 21.9281C19.0992 21.9706 19.0992 21.914 19.299 21.5598C20.2266 19.8883 21.8392 19.605 22.4101 19.18C22.8953 18.8117 22.7954 19.265 22.7526 19.3925Z" fill="white"/>
<path d="M18.4141 4.32042C18.5997 3.27217 20.1552 3.20135 20.3978 3.03136C20.6833 2.84721 20.6404 3.03136 20.5405 3.31467C20.2551 4.05127 19.2847 4.34875 18.8423 4.43374C18.4855 4.4904 18.3713 4.51874 18.4141 4.32042Z" fill="white"/>
<path d="M17.9432 4.34875C17.7862 3.27217 19.3275 2.76222 19.513 2.5214C19.7271 2.26642 19.7556 2.42224 19.6557 2.71972C19.4702 3.35717 18.7995 4.10794 18.3999 4.30625C18.0716 4.47624 17.9717 4.54707 17.9432 4.34875Z" fill="white"/>
<path d="M16.6731 4.97203C16.5304 3.68297 17.7862 3.48466 18.1145 3.07386C18.3285 2.81888 18.3428 2.96053 18.2714 3.25801C18.1287 3.90962 17.5008 4.67456 17.1155 4.91537C16.8158 5.09952 16.6873 5.17035 16.6731 4.97203Z" fill="white"/>
<path d="M17.0584 4.68872C18.3571 3.85296 19.2704 4.32042 19.6415 4.27792C19.9982 4.23543 20.1124 4.46207 19.4987 4.80204C18.7424 5.21284 17.6863 5.15618 17.2725 5.00036C16.8443 4.83038 16.9728 4.74538 17.0584 4.68872Z" fill="white"/>
<path d="M15.1032 5.25534C15.5028 3.86712 16.4305 4.09377 16.7016 3.92379C16.9728 3.7538 17.0013 3.7963 16.9442 4.10794C16.8301 4.66039 15.8739 5.26951 15.4029 5.45366C15.2317 5.51032 15.0176 5.59531 15.1032 5.25534Z" fill="white"/>
<path d="M15.2888 5.49615C16.4019 4.60373 17.2725 5.26951 17.615 5.17035C17.8718 5.09952 17.7577 5.26951 17.6578 5.34033C16.9442 5.83613 16.0594 6.10527 15.3744 5.79363C15.1032 5.68031 15.089 5.65197 15.2888 5.49615Z" fill="white"/>
<path d="M12.877 6.40275C12.8627 5.52449 14.6894 5.15618 15.0747 4.61789C15.303 4.29209 15.5028 4.46207 15.3887 4.9862C15.2174 5.66614 13.9616 6.41691 13.2765 6.55857C12.8627 6.64356 12.877 6.5019 12.877 6.40275Z" fill="white"/>
<path d="M12.934 6.55857C14.09 5.52448 15.0604 5.86446 15.4172 5.7653C15.774 5.68031 15.9167 5.89279 15.3601 6.31775C14.6751 6.82771 13.6191 6.92687 13.1766 6.82771C12.7342 6.72855 12.8484 6.62939 12.934 6.55857Z" fill="white"/>
<path d="M10.8647 8.07427C11.193 6.57273 12.2348 6.26109 12.4916 5.97778C12.7342 5.69447 12.9911 5.77946 12.7771 6.45941C12.5202 7.26684 11.6782 7.97512 11.2358 8.1451C10.8076 8.32925 10.8362 8.1876 10.8647 8.07427Z" fill="white"/>
<path d="M10.879 8.27259C11.721 6.92687 12.8199 6.96936 13.1624 6.78521C13.4906 6.5869 13.7189 6.75688 13.2765 7.33767C12.7628 8.04594 11.7067 8.44258 11.2215 8.47091C10.7363 8.49924 10.8219 8.37175 10.879 8.27259Z" fill="white"/>
<path d="M9.79439 9.87329C9.30917 8.34342 10.4223 7.7768 10.5365 7.52182C10.6649 7.26684 10.7934 7.26684 10.8647 7.53598C11.1787 8.62673 10.1654 9.68914 10.0085 9.90162C9.85148 10.0999 9.82293 10.0008 9.79439 9.87329Z" fill="white"/>
<path d="M10.0227 10.2983C10.4081 8.58423 11.4213 8.68339 11.6496 8.44258C11.8922 8.20176 11.9208 8.37175 11.878 8.68339C11.7638 9.51915 10.7506 10.0858 10.2939 10.3691C10.1512 10.4541 9.97992 10.5532 10.0227 10.2983Z" fill="white"/>
<path d="M9.05229 12.3098C8.35301 10.6949 9.18073 9.60415 9.43761 9.36333C9.69449 9.13668 9.85148 9.03753 9.76585 9.36333C9.65168 9.85912 10.0513 11.134 9.43761 12.0689C9.23782 12.3806 9.20928 12.6781 9.05229 12.3098Z" fill="white"/>
<path d="M9.42334 12.6356C9.26636 11.644 9.83721 10.7374 10.4509 10.3832C10.8076 10.1708 10.8219 10.2274 10.8219 10.5249C10.7934 11.4457 9.92283 12.2106 9.66595 12.6356C9.42334 13.0322 9.43761 12.7347 9.42334 12.6356Z" fill="white"/>
<path d="M9.58033 15.2137C10.0941 13.3438 9.02375 12.2673 8.69552 12.0548C8.38155 11.8281 8.18176 11.7431 8.32447 12.0973C8.53853 12.6214 8.3102 14.0804 9.12365 15.0012C9.38053 15.3128 9.46616 15.6386 9.58033 15.2137Z" fill="white"/>
<path d="M9.46616 14.8029C9.03802 13.1738 9.96565 12.2531 10.2511 12.0689C10.5222 11.8848 10.6935 11.814 10.565 12.1114C10.3938 12.5647 10.5793 13.8396 9.86575 14.6329C9.63741 14.902 9.55178 15.1712 9.46616 14.8029Z" fill="white"/>
<path d="M9.99419 14.0379C10.7648 14.8595 10.7791 16.0636 10.4366 16.7719C10.2225 17.1827 10.194 17.1544 9.99419 16.8569C9.45189 15.9928 9.78012 14.7462 9.75158 14.1938C9.73731 13.6696 9.90856 13.953 9.99419 14.0379Z" fill="white"/>
<path d="M8.72406 15.3412C8.72406 16.4744 9.42334 17.3952 10.1654 17.6785C10.5936 17.8343 10.5936 17.7918 10.5365 17.4518C10.3367 16.1769 9.35199 15.7095 8.99521 15.2987C8.6527 14.902 8.72406 15.2278 8.72406 15.3412Z" fill="white"/>
<path d="M11.3785 18.7126C10.1226 17.5793 10.7934 16.786 10.7363 16.0494C10.7077 15.6528 10.8647 15.752 11.0074 15.8936C11.8066 16.6727 11.8494 18.0609 11.6782 18.5992C11.6068 18.84 11.4927 18.8117 11.3785 18.7126Z" fill="white"/>
<path d="M9.69449 17.9759C10.1084 19.2225 11.2072 19.9874 12.1349 20.0299C12.6772 20.0583 12.6629 20.0158 12.4774 19.6475C11.7781 18.3159 10.5365 18.1601 9.97992 17.8201C9.46616 17.5085 9.65168 17.8485 9.69449 17.9759Z" fill="white"/>
<path d="M13.1053 20.3133C11.4784 19.5058 11.8066 18.1601 11.5069 17.8201C11.2929 17.5793 11.5497 17.6076 11.6782 17.6926C12.6343 18.2451 13.405 19.1234 13.4193 20.0583C13.4193 20.4124 13.3907 20.4549 13.1053 20.3133Z" fill="white"/>
<path d="M15.3316 21.8148C13.2765 22.1406 12.3204 20.5966 11.721 20.4549C11.407 20.3841 11.6354 20.2566 11.7923 20.2424C13.1624 20.0866 14.9035 20.7241 15.4315 21.4323C15.6455 21.7156 15.6455 21.7723 15.3316 21.8148Z" fill="white"/>
<path d="M13.248 19.3925C13.6619 20.7382 15.2031 21.8431 16.3591 21.9281C16.9014 21.9706 16.9014 21.914 16.7016 21.5598C15.774 19.8883 14.1614 19.605 13.5905 19.18C13.1053 18.8117 13.2052 19.265 13.248 19.3925Z" fill="white"/>
<path d="M20.4121 5.62364C20.141 5.42533 19.142 5.53865 18.9564 5.41116C19.3132 5.70864 20.1124 5.49615 20.4121 5.62364Z" fill="#006233"/>
<path d="M22.8239 6.1336C22.6099 5.75113 21.3397 5.49615 21.1542 5.15618C21.4824 5.8078 22.4671 5.7228 22.8239 6.1336Z" fill="#006233"/>
<path d="M22.6384 6.57273C22.1674 6.11944 21.0686 6.30359 20.7403 6.03444C21.511 6.72855 21.9391 6.19026 22.6384 6.57273Z" fill="#006233"/>
<path d="M19.8841 4.56123C20.1838 4.71705 20.5548 4.87287 20.7403 5.24118C20.5263 4.95787 20.141 4.84454 19.827 4.60373C19.8413 4.60373 19.8698 4.5754 19.8841 4.56123Z" fill="#006233"/>
<path d="M24.565 7.47932C24.3795 7.05436 23.723 6.5869 23.6659 6.43108C23.8514 6.98353 24.3937 7.11102 24.565 7.47932Z" fill="#006233"/>
<path d="M24.7362 8.23009C24.1654 7.33767 23.2663 7.43683 22.9095 7.09686C23.1807 7.42266 24.2082 7.63514 24.7362 8.23009Z" fill="#006233"/>
<path d="M26.0635 9.60415C26.1063 8.65506 25.3927 8.30092 25.3642 7.76263C25.3499 8.40008 26.092 9.26417 26.0635 9.60415Z" fill="#006233"/>
<path d="M25.7067 10.1141C25.564 9.29251 24.5935 9.23584 24.4223 8.75422C24.4223 9.20751 25.564 9.67497 25.7067 10.1141Z" fill="#006233"/>
<path d="M26.5059 9.64664C27.0196 10.2699 26.6628 11.219 26.8769 11.9131C26.62 11.4032 26.7485 10.1283 26.5059 9.64664Z" fill="#006233"/>
<path d="M25.6639 12.3098C26.4345 13.1314 26.1205 14.0521 26.4345 14.4487C26.0492 13.8963 26.1063 12.8197 25.6639 12.3098Z" fill="#006233"/>
<path d="M27.2622 12.4231C26.6058 13.1455 27.0054 14.2363 26.6628 14.7462C27.0482 14.3071 26.9911 12.9614 27.2622 12.4231Z" fill="#006233"/>
<path d="M26.4345 12.4231C26.3489 11.5873 25.564 11.1482 25.4926 10.6949C25.407 11.1482 26.249 11.8565 26.4345 12.4231Z" fill="#006233"/>
<path d="M26.0349 14.4204C26.1634 15.0012 25.6924 16.2478 25.8351 16.6302C25.5212 15.9645 26.1063 14.7037 26.0349 14.4204Z" fill="#006233"/>
<path d="M27.0482 15.752C26.7342 16.786 26.1063 16.7152 25.9065 17.3385C26.0492 16.7436 26.8769 16.2053 27.0482 15.752Z" fill="#006233"/>
<path d="M25.0074 16.2336C24.5935 16.9277 24.936 17.721 24.5935 18.2168C25.0788 17.721 24.8219 16.8002 25.0074 16.2336Z" fill="#006233"/>
<path d="M26.0064 18.1318C25.5069 19.0525 24.4794 18.9675 24.0655 19.6333C24.4794 18.7975 25.7495 18.6559 26.0064 18.1318Z" fill="#006233"/>
<path d="M24.1939 18.0184C23.3091 18.6276 23.5803 19.265 22.9095 19.945C23.7515 19.265 23.6802 18.5142 24.1939 18.0184Z" fill="#006233"/>
<path d="M23.7801 20.4832C22.9238 20.4549 21.6965 21.5598 20.9544 21.4748C21.6965 21.6306 23.0665 20.6391 23.7801 20.4832Z" fill="#006233"/>
<path d="M22.3958 19.4917C22.3387 20.3558 20.1124 20.9082 19.8698 21.489C20.141 20.7241 22.0961 20.1574 22.3958 19.4917Z" fill="#006233"/>
<path d="M17.3581 3.55548C17.0727 3.31467 16.7302 3.11635 16.6303 2.87554C16.7016 3.18718 16.987 3.41383 17.2725 3.62631C17.301 3.61215 17.3295 3.56965 17.3581 3.55548Z" fill="#006233"/>
<path d="M16.8729 3.81046C16.4305 3.59798 15.9167 3.61214 15.6884 3.31467C15.8311 3.61214 16.3163 3.72547 16.7302 3.88129C16.773 3.85296 16.8301 3.82463 16.8729 3.81046Z" fill="#006233"/>
<path d="M15.5885 5.62364C15.8596 5.42533 16.8586 5.53865 17.0441 5.41116C16.6873 5.70864 15.8882 5.49615 15.5885 5.62364Z" fill="#006233"/>
<path d="M13.1766 6.1336C13.3907 5.75113 14.6608 5.49615 14.8464 5.15618C14.5181 5.8078 13.5334 5.7228 13.1766 6.1336Z" fill="#006233"/>
<path d="M13.3622 6.57273C13.8331 6.11944 14.932 6.30359 15.2602 6.03444C14.4896 6.72855 14.0615 6.19026 13.3622 6.57273Z" fill="#006233"/>
<path d="M15.2602 5.24118C15.5314 4.67456 16.302 4.60373 16.5018 4.26376C16.2021 4.77372 15.5457 4.85871 15.2602 5.24118Z" fill="#006233"/>
<path d="M17.458 4.74538C18.2429 4.37708 19.0135 4.68872 19.3846 4.51874C18.9279 4.75955 17.8433 4.64623 17.458 4.74538Z" fill="#006233"/>
<path d="M11.4356 7.47932C11.6211 7.05436 12.2776 6.5869 12.3347 6.43108C12.1491 6.98353 11.6068 7.11102 11.4356 7.47932Z" fill="#006233"/>
<path d="M11.2643 8.23009C11.8352 7.33767 12.7342 7.43683 13.091 7.09686C12.8199 7.42266 11.7923 7.63514 11.2643 8.23009Z" fill="#006233"/>
<path d="M9.9371 9.60415C9.89429 8.65506 10.6078 8.30092 10.6364 7.76263C10.6507 8.40008 9.90856 9.26417 9.9371 9.60415Z" fill="#006233"/>
<path d="M10.2939 10.1141C10.4366 9.29251 11.407 9.23584 11.5783 8.75422C11.5783 9.20751 10.4366 9.67497 10.2939 10.1141Z" fill="#006233"/>
<path d="M9.4947 9.64664C8.98094 10.2699 9.33772 11.219 9.12365 11.9131C9.38053 11.4032 9.25209 10.1283 9.4947 9.64664Z" fill="#006233"/>
<path d="M10.3367 12.3098C9.56605 13.1314 9.88002 14.0521 9.56605 14.4487C9.95137 13.8963 9.89429 12.8197 10.3367 12.3098Z" fill="#006233"/>
<path d="M8.73833 12.4231C9.3948 13.1455 8.99521 14.2363 9.33772 14.7462C8.9524 14.3071 9.00948 12.9614 8.73833 12.4231Z" fill="#006233"/>
<path d="M9.56605 12.4231C9.65168 11.5873 10.4366 11.1482 10.5079 10.6949C10.5936 11.1482 9.75158 11.8565 9.56605 12.4231Z" fill="#006233"/>
<path d="M9.96564 14.4204C9.8372 15.0012 10.3082 16.2478 10.1654 16.6302C10.4794 15.9645 9.89429 14.7037 9.96564 14.4204Z" fill="#006233"/>
<path d="M8.9524 15.752C9.26636 16.786 9.89429 16.7152 10.0941 17.3385C9.95138 16.7436 9.12365 16.2053 8.9524 15.752Z" fill="#006233"/>
<path d="M10.9932 16.2336C11.407 16.9277 11.0645 17.721 11.407 18.2168C10.9218 17.721 11.1787 16.8002 10.9932 16.2336Z" fill="#006233"/>
<path d="M9.99419 18.1318C10.4937 19.0525 11.5212 18.9675 11.9351 19.6333C11.5212 18.7975 10.2511 18.6559 9.99419 18.1318Z" fill="#006233"/>
<path d="M11.8066 18.0184C12.6914 18.6276 12.4203 19.265 13.091 19.945C12.249 19.265 12.3204 18.5142 11.8066 18.0184Z" fill="#006233"/>
<path d="M12.2205 20.4832C13.0767 20.4549 14.3041 21.5598 15.0462 21.4748C14.3041 21.6306 12.934 20.6391 12.2205 20.4832Z" fill="#006233"/>
<path d="M13.6048 19.4917C13.6619 20.3558 15.8882 20.9082 16.1308 21.489C15.8596 20.7241 13.9045 20.1574 13.6048 19.4917Z" fill="#006233"/>
<path d="M16.8443 4.77372C17.0156 4.00878 17.8718 3.86712 17.986 3.41383C17.9432 3.89546 16.9299 4.43374 16.8443 4.77372Z" fill="#006233"/>
<path d="M19.3703 2.87554C19.2419 3.45633 18.3142 3.78213 18.1858 4.22126C18.2286 3.62631 19.1848 3.28634 19.3703 2.87554Z" fill="#006233"/>
<path d="M18.6425 4.24959C19.0849 3.54132 19.9982 3.72547 20.3122 3.31467C20.0839 3.7963 18.9564 3.81046 18.6425 4.24959Z" fill="#006233"/>
<path d="M16.6554 19.6688L16.6313 19.7503C16.6152 19.8047 16.5621 19.8335 16.5033 19.8311C16.3664 19.7912 16.1843 19.7529 16.02 19.705L16.1727 19.1888C16.3507 19.2406 16.5327 19.2789 16.66 19.3012C16.7148 19.3172 16.7438 19.3699 16.7277 19.4243L16.7076 19.4922M15.5534 19.1706L15.5775 19.0891C15.5935 19.0348 15.6467 19.006 15.7014 19.0219C15.8344 19.0754 15.9947 19.1369 16.1727 19.1888L16.02 19.705C15.8557 19.6571 15.6913 19.6093 15.5447 19.5518C15.494 19.5222 15.481 19.4152 15.4971 19.3608" fill="#F7C608"/>
<path d="M16.5618 19.6238L16.5445 19.6822C16.5328 19.7216 16.4902 19.7402 16.4419 19.7365C16.328 19.7033 16.1771 19.6696 16.0404 19.6298L16.1497 19.2603C16.2978 19.3034 16.4487 19.3371 16.554 19.3574C16.5995 19.3707 16.6253 19.4092 16.6136 19.4486L16.5991 19.4975M15.6396 19.2282L15.6569 19.1698C15.6686 19.1304 15.7112 19.1118 15.7567 19.1251C15.8678 19.1678 16.0017 19.2171 16.1497 19.2603L16.0404 19.6298C15.9038 19.59 15.7671 19.5502 15.6446 19.5041C15.6019 19.4814 15.5878 19.4035 15.5995 19.3641" fill="#006233"/>
<path d="M14.8198 19.0232L14.7735 19.0947C14.7427 19.1423 14.6835 19.1551 14.6278 19.1364C14.5077 19.0598 14.3439 18.9722 14.1998 18.8803L14.4928 18.4276C14.6489 18.5272 14.8127 18.6148 14.9285 18.6718C14.9765 18.7024 14.9894 18.7611 14.9586 18.8088L14.92 18.8683M13.9037 18.237L13.95 18.1656C13.9808 18.1179 14.04 18.1052 14.088 18.1358C14.2004 18.2243 14.3367 18.3281 14.4928 18.4276L14.1998 18.8803C14.0558 18.7884 13.9117 18.6965 13.7873 18.6004C13.747 18.5578 13.7649 18.4515 13.7958 18.4038" fill="#F7C608"/>
<path d="M14.7427 18.9539L14.7096 19.0051C14.6872 19.0396 14.641 19.0455 14.5957 19.0284C14.4958 18.9647 14.3606 18.8903 14.2408 18.8138L14.4505 18.4898C14.5803 18.5726 14.7156 18.6471 14.8108 18.696C14.8508 18.7215 14.8645 18.7656 14.8422 18.8002L14.8144 18.8431M13.9702 18.3165L14.0033 18.2652C14.0257 18.2307 14.0718 18.2248 14.1118 18.2503C14.2063 18.3223 14.3207 18.407 14.4505 18.4898L14.2408 18.8138C14.121 18.7374 14.0011 18.661 13.8967 18.5826C13.8621 18.5488 13.8707 18.4701 13.8931 18.4356" fill="#006233"/>
<path d="M13.242 17.8904L13.1773 17.946C13.1342 17.9831 13.0738 17.9788 13.0257 17.9453C12.9322 17.8383 12.7999 17.7084 12.6877 17.5799L13.0973 17.2275C13.2188 17.3667 13.3511 17.4965 13.446 17.5836C13.4834 17.6264 13.4791 17.6864 13.436 17.7235L13.3821 17.7698M12.5861 16.88L12.6508 16.8243C12.6939 16.7872 12.7543 16.7915 12.7917 16.8343C12.8744 16.9506 12.9758 17.0884 13.0973 17.2275L12.6877 17.5799C12.5755 17.4515 12.4633 17.323 12.3713 17.196C12.3447 17.1439 12.3921 17.0469 12.4352 17.0098" fill="#F7C608"/>
<path d="M13.1877 17.8023L13.1414 17.8422C13.1101 17.8691 13.0642 17.8618 13.0255 17.8327C12.9478 17.7437 12.8391 17.6345 12.7459 17.5276L13.039 17.2754C13.1401 17.3911 13.2487 17.5003 13.3262 17.574C13.3573 17.6096 13.358 17.6558 13.3268 17.6827L13.288 17.7161M12.6273 16.9747L12.6737 16.9348C12.7049 16.908 12.7509 16.9152 12.782 16.9508C12.8522 17.0463 12.938 17.1596 13.039 17.2754L12.7459 17.5276C12.6526 17.4208 12.5593 17.314 12.4813 17.2095C12.4577 17.1674 12.4883 17.0944 12.5195 17.0675" fill="#006233"/>
<path d="M12.0491 16.3624L11.9712 16.3977C11.9193 16.4213 11.8626 16.4003 11.8259 16.3546C11.7666 16.2258 11.6765 16.0642 11.6053 15.9096L12.0983 15.6859C12.1754 15.8534 12.2655 16.015 12.3319 16.1251C12.3556 16.1766 12.3345 16.233 12.2826 16.2565L12.2177 16.2859M11.7065 15.2095L11.7843 15.1742C11.8362 15.1507 11.8929 15.1717 11.9166 15.2232C11.963 15.3579 12.0212 15.5184 12.0983 15.6859L11.6053 15.9096C11.5341 15.755 11.4629 15.6003 11.4107 15.4527C11.3999 15.3953 11.4729 15.3154 11.5248 15.2919" fill="#F7C608"/>
<path d="M12.022 16.2627L11.9662 16.288C11.9286 16.3051 11.8865 16.2853 11.8577 16.2466C11.8084 16.1394 11.7351 16.0042 11.6759 15.8756L12.0288 15.7156C12.093 15.8549 12.1662 15.9901 12.2197 16.0824C12.2394 16.1252 12.227 16.1697 12.1893 16.1868L12.1426 16.208M11.7191 15.312L11.7749 15.2867C11.8125 15.2696 11.8546 15.2894 11.8743 15.3323C11.9146 15.4435 11.9647 15.5762 12.0288 15.7156L11.6759 15.8756C11.6167 15.747 11.5575 15.6184 11.5123 15.4965C11.5017 15.4495 11.5518 15.3879 11.5894 15.3708" fill="#006233"/>
<path d="M11.3383 14.5629L11.2536 14.575C11.1971 14.5831 11.1487 14.5471 11.1264 14.493C11.1061 14.3528 11.0655 14.1725 11.0411 14.0043L11.5776 13.9275C11.604 14.1098 11.6446 14.2901 11.6771 14.4143C11.6852 14.4703 11.649 14.5185 11.5925 14.5265L11.5219 14.5366M11.3368 13.3609L11.4215 13.3487C11.478 13.3407 11.5264 13.3767 11.5346 13.4327C11.5408 13.575 11.5511 13.7453 11.5776 13.9275L11.0411 14.0043C11.0166 13.836 10.9922 13.6678 10.9839 13.5115C10.9899 13.4534 11.0826 13.3972 11.1391 13.3891" fill="#F7C608"/>
<path d="M11.3406 14.4597L11.2799 14.4684C11.239 14.4742 11.2043 14.4435 11.1876 14.3982C11.1707 14.2816 11.1388 14.1314 11.1185 13.9915L11.5025 13.9366C11.5245 14.0881 11.5564 14.2383 11.5815 14.3419C11.5883 14.3885 11.5637 14.4278 11.5228 14.4336L11.472 14.4409M11.3199 13.4627L11.3806 13.454C11.4215 13.4482 11.4562 13.4789 11.463 13.5256C11.4701 13.6436 11.4805 13.7849 11.5025 13.9366L11.1185 13.9915C11.0981 13.8515 11.0778 13.7116 11.0691 13.5819C11.0722 13.5338 11.1377 13.4888 11.1787 13.4829" fill="#006233"/>
<path d="M11.1674 12.6371L11.0827 12.625C11.0262 12.617 10.9899 12.5688 10.9839 12.5107C11.0042 12.3705 11.0164 12.1862 11.0407 12.0179L11.5772 12.0943C11.5509 12.2766 11.5387 12.4609 11.5346 12.5891C11.5265 12.6452 11.478 12.6813 11.4216 12.6732L11.351 12.6632M11.507 11.4832L11.5917 11.4953C11.6482 11.5033 11.6845 11.5514 11.6764 11.6075C11.642 11.7457 11.6036 11.912 11.5772 12.0943L11.0407 12.0179C11.065 11.8497 11.0893 11.6814 11.1257 11.5291C11.1479 11.4751 11.2528 11.4471 11.3093 11.4551" fill="#F7C608"/>
<path d="M11.1989 12.5386L11.1382 12.53C11.0972 12.5242 11.0726 12.485 11.0695 12.4369C11.0863 12.3203 11.0984 12.1672 11.1186 12.0273L11.5027 12.082C11.4808 12.2336 11.4687 12.3866 11.4635 12.493C11.4567 12.5396 11.422 12.5704 11.3811 12.5646L11.3302 12.5573M11.4619 11.5762L11.5226 11.5849C11.5635 11.5907 11.5881 11.6299 11.5814 11.6766C11.5547 11.7918 11.5246 11.9303 11.5027 12.082L11.1186 12.0273C11.1388 11.8873 11.159 11.7474 11.1874 11.6205C11.2041 11.5752 11.2797 11.5503 11.3207 11.5561" fill="#006233"/>
<path d="M11.5497 10.7427L11.4718 10.7074C11.4199 10.6839 11.3988 10.6276 11.4095 10.5702C11.4687 10.4413 11.5327 10.2679 11.6038 10.1132L12.0969 10.3365C12.02 10.504 11.9559 10.6775 11.9156 10.7993C11.8919 10.8509 11.8352 10.8719 11.7833 10.8484L11.7184 10.819M12.203 9.73054L12.2808 9.76579C12.3327 9.7893 12.3539 9.84558 12.3302 9.89714C12.258 10.0201 12.1739 10.1689 12.0969 10.3365L11.6038 10.1132C11.6749 9.95854 11.7459 9.80387 11.8241 9.66797C11.8607 9.62229 11.9694 9.62476 12.0213 9.64827" fill="#F7C608"/>
<path d="M11.6078 10.657L11.552 10.6318C11.5144 10.6147 11.5019 10.5702 11.5126 10.5232C11.5618 10.4161 11.6168 10.2726 11.6759 10.144L12.0289 10.3038C11.9648 10.4431 11.9099 10.5866 11.8746 10.6872C11.8549 10.7301 11.8129 10.7499 11.7753 10.7328L11.7285 10.7117M12.1333 9.80715L12.1891 9.83242C12.2267 9.84946 12.2392 9.89395 12.2195 9.93683C12.1611 10.0399 12.0929 10.1644 12.0289 10.3038L11.6759 10.144C11.735 10.0153 11.7941 9.88668 11.8574 9.77288C11.8862 9.73411 11.9658 9.73134 12.0035 9.74838" fill="#006233"/>
<path d="M12.454 9.02988L12.3893 8.97428C12.3462 8.93722 12.3418 8.87728 12.3684 8.82517C12.4618 8.71806 12.5724 8.56956 12.6845 8.44104L13.0944 8.79317C12.973 8.9324 12.8623 9.08091 12.789 9.18657C12.7517 9.22941 12.6913 9.23375 12.6481 9.19668L12.5942 9.15035M13.368 8.24139L13.4327 8.29699C13.4759 8.33406 13.4802 8.39399 13.4429 8.43683C13.3387 8.53467 13.2158 8.65393 13.0944 8.79317L12.6845 8.44104C12.7966 8.31251 12.9087 8.18398 13.0222 8.07542C13.0704 8.04185 13.1739 8.07459 13.217 8.11166" fill="#F7C608"/>
<path d="M12.5341 8.964L12.4877 8.92415C12.4564 8.89728 12.4571 8.85109 12.4806 8.80898C12.5583 8.7199 12.6518 8.5976 12.745 8.49071L13.0383 8.74276C12.9374 8.85856 12.8439 8.98085 12.7815 9.06751C12.7505 9.10314 12.7045 9.11041 12.6732 9.08354L12.6344 9.05018M13.2794 8.29542L13.3258 8.33526C13.3571 8.36214 13.3564 8.40832 13.3253 8.44396C13.2401 8.52655 13.1393 8.62695 13.0383 8.74276L12.745 8.49071C12.8382 8.38381 12.9314 8.27691 13.0244 8.18541C13.0631 8.15626 13.1403 8.17587 13.1716 8.20275" fill="#006233"/>
<path d="M13.8076 7.64021L13.7613 7.56877C13.7304 7.52114 13.7432 7.46242 13.7835 7.41985C13.9036 7.3432 14.0519 7.23165 14.1959 7.13966L14.4892 7.59212C14.3332 7.69177 14.1849 7.80333 14.0846 7.88422C14.0366 7.91488 13.9774 7.90216 13.9465 7.85453L13.9079 7.795M14.9084 7.13919L14.9547 7.21063C14.9855 7.25826 14.9727 7.31698 14.9247 7.34764C14.797 7.41239 14.6452 7.49246 14.4892 7.59212L14.1959 7.13966C14.3399 7.04767 14.4839 6.95568 14.6237 6.88327C14.6794 6.86451 14.7694 6.92487 14.8003 6.9725" fill="#F7C608"/>
<path d="M13.9031 7.59939L13.8699 7.54819C13.8476 7.51366 13.8613 7.46953 13.8958 7.43569C13.9956 7.37194 14.12 7.28072 14.2398 7.20422L14.4497 7.52808C14.32 7.61096 14.1956 7.70218 14.1112 7.76789C14.0713 7.79339 14.0251 7.78752 14.0027 7.75299L13.9749 7.71012M14.808 7.16625L14.8412 7.21745C14.8636 7.25198 14.8498 7.29611 14.8099 7.32162C14.7047 7.37703 14.5795 7.4452 14.4497 7.52808L14.2398 7.20422C14.3596 7.12772 14.4794 7.0512 14.5946 6.98941C14.6399 6.97224 14.7084 7.01265 14.7308 7.04718" fill="#006233"/>
<path d="M15.5006 6.68576L15.4765 6.60426C15.4604 6.54993 15.4894 6.49718 15.5401 6.4676C15.677 6.4276 15.851 6.36203 16.0153 6.31403L16.1683 6.83018C15.9903 6.88217 15.8164 6.94775 15.6972 6.99733C15.6424 7.01333 15.5893 6.98458 15.5731 6.93025L15.553 6.86233M16.699 6.51278L16.7232 6.59428C16.7393 6.64861 16.7103 6.70136 16.6556 6.71736C16.5146 6.74377 16.3463 6.77818 16.1683 6.83018L16.0153 6.31403C16.1795 6.26604 16.3438 6.21804 16.4985 6.18763C16.5573 6.18521 16.6265 6.26829 16.6426 6.32263" fill="#F7C608"/>
<path d="M15.6039 6.6733L15.5866 6.6149C15.5749 6.57551 15.6006 6.537 15.6433 6.51419C15.7572 6.48093 15.9024 6.42817 16.0391 6.38826L16.1486 6.75771C16.0006 6.80095 15.8554 6.8537 15.7557 6.89315C15.7102 6.90645 15.6675 6.88791 15.6559 6.84852L15.6414 6.79962M16.595 6.51069L16.6124 6.5691C16.624 6.60849 16.5983 6.64699 16.5528 6.6603C16.4361 6.68405 16.2967 6.71446 16.1486 6.75771L16.0391 6.38826C16.1757 6.34834 16.3124 6.30842 16.4404 6.28134C16.4888 6.27754 16.5431 6.33547 16.5548 6.37486" fill="#006233"/>
<path d="M17.3961 6.24427L17.396 6.15932C17.396 6.10268 17.4388 6.06018 17.4959 6.04598C17.6386 6.04588 17.8241 6.03159 17.9954 6.03147L17.9958 6.5695C17.8102 6.56963 17.6247 6.58392 17.4963 6.59817C17.4392 6.5982 17.3963 6.55576 17.3963 6.49912L17.3962 6.42833M18.5951 6.41334L18.5951 6.49829C18.5952 6.55493 18.5524 6.59743 18.4953 6.59747C18.3526 6.58341 18.1813 6.56937 17.9958 6.5695L17.9954 6.03147C18.1666 6.03136 18.3379 6.03124 18.4949 6.04529C18.552 6.05941 18.5949 6.15849 18.5949 6.21512" fill="#F7C608"/>
<path d="M17.4987 6.26119L17.4987 6.20031C17.4986 6.15925 17.5342 6.12949 17.5817 6.11954C17.7004 6.11946 17.8547 6.10944 17.9972 6.10934L17.9974 6.49446C17.8431 6.49457 17.6888 6.50458 17.582 6.51457C17.5345 6.5146 17.4989 6.48489 17.4989 6.44383L17.4988 6.39286M18.4959 6.38226L18.4959 6.44314C18.496 6.4842 18.4604 6.51396 18.4129 6.51399C18.2942 6.50416 18.1518 6.49435 17.9974 6.49446L17.9972 6.10934C18.1396 6.10925 18.2821 6.10915 18.4126 6.11897C18.4601 6.12885 18.4958 6.19961 18.4958 6.24067" fill="#006233"/>
<path d="M19.2121 6.33921L19.2355 6.25749C19.2511 6.20302 19.304 6.17378 19.3628 6.17565C19.5001 6.21437 19.6825 6.25109 19.8472 6.29756L19.6991 6.8151C19.5206 6.76477 19.3382 6.72804 19.2108 6.70681C19.1558 6.69132 19.1263 6.63885 19.1419 6.58437L19.1614 6.51627M20.3186 6.82793L20.2952 6.90964C20.2796 6.96412 20.2267 6.99337 20.1718 6.97788C20.0384 6.92553 19.8775 6.86545 19.6991 6.8151L19.8472 6.29756C20.012 6.34402 20.1767 6.39049 20.3238 6.44671C20.3749 6.47582 20.3887 6.58277 20.3731 6.63725" fill="#F7C608"/>
<path d="M19.3061 6.3834L19.3229 6.32483C19.3342 6.28533 19.3767 6.2664 19.4251 6.26974C19.5393 6.30195 19.6904 6.33429 19.8274 6.37293L19.7214 6.74339C19.573 6.70152 19.4218 6.66919 19.3163 6.64973C19.2706 6.63685 19.2445 6.59859 19.2559 6.55909L19.2699 6.51006M20.2318 6.77106L20.215 6.82962C20.2037 6.86912 20.1612 6.88806 20.1156 6.87518C20.0041 6.83344 19.8698 6.78526 19.7214 6.74339L19.8274 6.37293C19.9645 6.41158 20.1015 6.45023 20.2244 6.49519C20.2673 6.51761 20.2821 6.59537 20.2708 6.63486" fill="#006233"/>
<path d="M21.0532 6.96917L21.0989 6.8973C21.1293 6.84939 21.1884 6.83612 21.2443 6.85436C21.365 6.92989 21.5295 7.01611 21.6744 7.10676L21.3854 7.56192C21.2284 7.46373 21.0639 7.3775 20.9476 7.3215C20.8993 7.29129 20.8859 7.23269 20.9163 7.18477L20.9544 7.12488M21.9761 7.74742L21.9305 7.81929C21.9001 7.8672 21.841 7.88048 21.7927 7.85026C21.6796 7.76275 21.5423 7.66012 21.3854 7.56192L21.6744 7.10676C21.8193 7.1974 21.9642 7.28805 22.0894 7.38312C22.1301 7.42532 22.1131 7.53182 22.0826 7.57973" fill="#F7C608"/>
<path d="M21.1309 7.03785L21.1636 6.98635C21.1857 6.95161 21.2318 6.94531 21.2773 6.96205C21.3777 7.02487 21.5136 7.09816 21.634 7.17355L21.4272 7.49935C21.2966 7.41769 21.1608 7.3444 21.0651 7.29624C21.0249 7.27111 21.0107 7.22711 21.0328 7.19237L21.0602 7.14925M21.909 7.66859L21.8763 7.7201C21.8542 7.75483 21.8081 7.76114 21.768 7.73601C21.6729 7.6648 21.5577 7.58103 21.4272 7.49935L21.634 7.17355C21.7545 7.24894 21.8751 7.32434 21.9802 7.40183C22.015 7.43534 22.0071 7.51408 21.9851 7.54881" fill="#006233"/>
<path d="M22.6408 8.08803L22.705 8.03183C22.7478 7.99436 22.8082 7.99814 22.8567 8.03126C22.9511 8.1375 23.0845 8.26623 23.1978 8.39371L22.7913 8.74964C22.6686 8.61154 22.5352 8.4828 22.4395 8.39656C22.4017 8.35407 22.4055 8.29409 22.4483 8.25663L22.5018 8.20979M23.3055 9.09279L23.2413 9.14899C23.1985 9.18646 23.1381 9.18269 23.1004 9.1402C23.0167 9.0246 22.9141 8.88775 22.7913 8.74964L23.1978 8.39371C23.3111 8.52119 23.4244 8.64868 23.5176 8.77491C23.5446 8.82677 23.4981 8.9242 23.4553 8.96166" fill="#F7C608"/>
<path d="M22.6959 8.17564L22.7419 8.13537C22.7729 8.1082 22.8189 8.11505 22.8578 8.14383C22.9363 8.23218 23.0459 8.34049 23.1401 8.44651L22.8492 8.70128C22.7471 8.58643 22.6375 8.47812 22.5594 8.40515C22.528 8.36982 22.5269 8.32363 22.5579 8.29647L22.5964 8.26275M23.2635 8.99838L23.2175 9.03865C23.1864 9.06582 23.1404 9.05898 23.109 9.02364C23.038 8.92873 22.9512 8.81615 22.8492 8.70128L23.1401 8.44651C23.2343 8.55254 23.3286 8.65857 23.4075 8.76232C23.4314 8.80422 23.4015 8.87755 23.3704 8.90472" fill="#006233"/>
<path d="M23.8467 9.60575L23.9242 9.56977C23.9759 9.54579 24.0328 9.5663 24.0699 9.61164C24.1303 9.73997 24.2218 9.90079 24.2943 10.0548L23.8033 10.2827C23.7247 10.1158 23.6332 9.95499 23.5659 9.8455C23.5417 9.79417 23.5624 9.73767 23.614 9.71369L23.6787 9.68371M24.1993 10.7557L24.1218 10.7916C24.0701 10.8156 24.0132 10.7951 23.989 10.7438C23.9415 10.6095 23.8819 10.4495 23.8033 10.2827L24.2943 10.0548C24.3669 10.2088 24.4394 10.3628 24.493 10.5099C24.5042 10.5673 24.4319 10.6477 24.3802 10.6717" fill="#F7C608"/>
<path d="M23.8746 9.70521L23.9302 9.67942C23.9676 9.66203 24.0099 9.68147 24.039 9.71996C24.0893 9.82669 24.1637 9.96125 24.224 10.0893L23.8725 10.2524C23.8072 10.1137 23.7328 9.97912 23.6785 9.88726C23.6584 9.84457 23.6704 9.79995 23.7079 9.78256L23.7544 9.76098M24.1857 10.6533L24.1302 10.6791C24.0927 10.6965 24.0505 10.6771 24.0304 10.6344C23.9891 10.5234 23.9379 10.3912 23.8725 10.2524L24.224 10.0893C24.2843 10.2174 24.3447 10.3455 24.3909 10.4671C24.402 10.514 24.3524 10.576 24.315 10.5934" fill="#006233"/>
<path d="M24.5728 11.3988L24.6574 11.3859C24.7138 11.3774 24.7626 11.413 24.7853 11.4668C24.8069 11.6069 24.849 11.7868 24.8749 11.9548L24.3391 12.0362C24.3111 11.8541 24.2689 11.6742 24.2354 11.5503C24.2268 11.4943 24.2626 11.4459 24.319 11.4373L24.3895 11.4266M24.5849 12.6008L24.5003 12.6136C24.4439 12.6222 24.3951 12.5866 24.3865 12.5306C24.379 12.3884 24.3672 12.2182 24.3391 12.0362L24.8749 11.9548C24.9008 12.1229 24.9267 12.2909 24.9364 12.4471C24.9309 12.5053 24.8387 12.5622 24.7823 12.5708" fill="#F7C608"/>
<path d="M24.5714 11.502L24.632 11.4928C24.6729 11.4866 24.7079 11.5171 24.725 11.5621C24.7429 11.6786 24.7761 11.8285 24.7976 11.9683L24.4141 12.0265C24.3908 11.8751 24.3576 11.7252 24.3316 11.6219C24.3244 11.5753 24.3486 11.5358 24.3895 11.5296L24.4403 11.5219M24.6009 12.4988L24.5403 12.508C24.4994 12.5142 24.4644 12.4837 24.4572 12.4372C24.4491 12.3192 24.4375 12.1779 24.4141 12.0265L24.7976 11.9683C24.8192 12.108 24.8407 12.2478 24.8506 12.3774C24.8479 12.4255 24.7828 12.4712 24.7419 12.4774" fill="#006233"/>
<path d="M24.7608 13.3229L24.8457 13.3342C24.9022 13.3418 24.9389 13.3896 24.9454 13.4476C24.9264 13.588 24.9158 13.7724 24.893 13.9409L24.3558 13.8691C24.3805 13.6866 24.3911 13.5022 24.3941 13.374C24.4017 13.3178 24.4498 13.2813 24.5064 13.2889L24.5771 13.2983M24.4313 14.4795L24.3465 14.4682C24.29 14.4607 24.2533 14.4129 24.2609 14.3567C24.294 14.2182 24.331 14.0516 24.3558 13.8691L24.893 13.9409C24.8701 14.1093 24.8473 14.2778 24.8122 14.4304C24.7904 14.4846 24.6858 14.5135 24.6292 14.506" fill="#F7C608"/>
<path d="M24.7302 13.4216L24.791 13.4297C24.832 13.4351 24.8569 13.4742 24.8605 13.5222C24.8446 13.6389 24.834 13.7921 24.815 13.9322L24.4305 13.8808C24.451 13.729 24.4617 13.5759 24.4661 13.4695C24.4724 13.4228 24.5068 13.3917 24.5478 13.3972L24.5987 13.404M24.4756 14.3862L24.4149 14.378C24.3739 14.3726 24.3489 14.3336 24.3553 14.2869C24.381 14.1714 24.4099 14.0326 24.4305 13.8808L24.815 13.9322C24.796 14.0723 24.777 14.2124 24.7497 14.3395C24.7334 14.3849 24.658 14.4105 24.617 14.405" fill="#006233"/>
<path d="M24.3961 15.2212L24.4743 15.2558C24.5264 15.2789 24.548 15.335 24.5378 15.3925C24.4797 15.5219 24.4172 15.6959 24.3475 15.8511L23.8524 15.6321C23.9279 15.4639 23.9904 15.2899 24.0297 15.1677C24.0529 15.116 24.1094 15.0944 24.1616 15.1175L24.2267 15.1463M23.7517 16.2389L23.6735 16.2044C23.6214 16.1813 23.5997 16.1252 23.623 16.0734C23.6941 15.9498 23.7768 15.8003 23.8524 15.6321L24.3475 15.8511C24.2778 16.0064 24.208 16.1617 24.1311 16.2983C24.0948 16.3442 23.9862 16.3427 23.9341 16.3196" fill="#F7C608"/>
<path d="M24.3387 15.3074L24.3947 15.3321C24.4325 15.3489 24.4454 15.3933 24.4351 15.4403C24.3868 15.5479 24.3331 15.6919 24.2751 15.821L23.9207 15.6642C23.9835 15.5243 24.0373 15.3804 24.0716 15.2795C24.091 15.2365 24.1328 15.2163 24.1706 15.233L24.2175 15.2538M23.8207 16.1617L23.7647 16.1369C23.7269 16.1202 23.714 16.0758 23.7334 16.0328C23.7908 15.9292 23.8579 15.8041 23.9207 15.6642L24.2751 15.821C24.2171 15.9501 24.1591 16.0793 24.0969 16.1936C24.0684 16.2326 23.9888 16.2361 23.951 16.2194" fill="#006233"/>
<path d="M23.5062 16.9409L23.5714 16.9959C23.6148 17.0326 23.6197 17.0925 23.5935 17.1449C23.5011 17.2528 23.3917 17.4022 23.2808 17.5317L22.8679 17.1831C22.9881 17.0428 23.0974 16.8934 23.1698 16.7871C23.2068 16.7439 23.2671 16.7391 23.3106 16.7758L23.3649 16.8216M22.599 17.7372L22.5339 17.6822C22.4904 17.6455 22.4855 17.5856 22.5225 17.5424C22.6258 17.4437 22.7477 17.3234 22.8679 17.1831L23.2808 17.5317C23.1698 17.6612 23.0589 17.7907 22.9463 17.9002C22.8984 17.9342 22.7946 17.9023 22.7512 17.8656" fill="#F7C608"/>
<path d="M23.4266 17.0074L23.4734 17.0469C23.5049 17.0735 23.5046 17.1197 23.4815 17.162C23.4046 17.2518 23.3122 17.3748 23.2199 17.4825L22.9244 17.233C23.0243 17.1164 23.1167 16.9933 23.1783 16.9061C23.2091 16.8702 23.255 16.8625 23.2865 16.8891L23.3256 16.9221M22.6872 17.6824L22.6405 17.643C22.609 17.6164 22.6092 17.5702 22.64 17.5343C22.7245 17.451 22.8244 17.3497 22.9244 17.233L23.2199 17.4825C23.1276 17.5902 23.0353 17.6979 22.9431 17.7902C22.9047 17.8197 22.8274 17.8008 22.7958 17.7742" fill="#006233"/>
<path d="M22.1648 18.342L22.2117 18.413C22.243 18.4604 22.2306 18.5192 22.1907 18.5621C22.0714 18.6398 21.9241 18.7526 21.7809 18.8459L21.4836 18.3959C21.6387 18.295 21.7861 18.1821 21.8857 18.1004C21.9334 18.0693 21.9927 18.0815 22.024 18.1289L22.0631 18.1881M21.0684 18.8525L21.0215 18.7814C20.9902 18.7341 21.0025 18.6752 21.0502 18.6442C21.1774 18.5783 21.3284 18.4969 21.4836 18.3959L21.7809 18.8459C21.6376 18.9391 21.4944 19.0323 21.3553 19.1059C21.2998 19.1252 21.2092 19.0656 21.1779 19.0182" fill="#F7C608"/>
<path d="M22.0696 18.3836L22.1032 18.4345C22.1259 18.4689 22.1125 18.5131 22.0783 18.5473C21.9791 18.6119 21.8555 18.7042 21.7364 18.7817L21.5236 18.4596C21.6526 18.3756 21.7762 18.2834 21.8601 18.2169C21.8998 18.1911 21.946 18.1966 21.9687 18.2309L21.9968 18.2735M21.1685 18.8245L21.1349 18.7736C21.1122 18.7393 21.1256 18.695 21.1653 18.6692C21.27 18.6129 21.3946 18.5436 21.5236 18.4596L21.7364 18.7817C21.6173 18.8592 21.4982 18.9367 21.3835 18.9995C21.3383 19.0171 21.2694 18.9773 21.2467 18.9429" fill="#006233"/>
<path d="M20.4802 19.3113L20.5051 19.3925C20.5217 19.4467 20.4931 19.4997 20.4427 19.5297C20.3061 19.5709 20.1327 19.638 19.9689 19.6874L19.8113 19.1726C19.9888 19.1191 20.1622 19.052 20.281 19.0014C20.3356 18.9849 20.389 19.0132 20.4056 19.0674L20.4263 19.1351M19.2834 19.4945L19.2585 19.4132C19.2419 19.359 19.2704 19.3061 19.3251 19.2896C19.4658 19.262 19.6338 19.2261 19.8113 19.1726L19.9689 19.6874C19.805 19.7368 19.6411 19.7862 19.4867 19.8179C19.428 19.8209 19.358 19.7384 19.3414 19.6842" fill="#F7C608"/>
<path d="M20.3771 19.3246L20.3949 19.3829C20.4069 19.4221 20.3815 19.4609 20.339 19.484C20.2254 19.5183 20.0807 19.5723 19.9444 19.6134L19.8316 19.2449C19.9793 19.2004 20.124 19.1464 20.2233 19.1061C20.2688 19.0924 20.3116 19.1105 20.3236 19.1498L20.3385 19.1986M19.3874 19.4957L19.3695 19.4375C19.3575 19.3982 19.3829 19.3595 19.4283 19.3458C19.5448 19.321 19.684 19.2894 19.8316 19.2449L19.9444 19.6134C19.8081 19.6545 19.6718 19.6956 19.544 19.7237C19.4956 19.728 19.4408 19.6705 19.4288 19.6312" fill="#006233"/>
<path d="M18.5885 19.771L18.5893 19.856C18.5899 19.9126 18.5474 19.9555 18.4905 19.9702C18.3478 19.9715 18.1624 19.9874 17.9912 19.989L17.9861 19.4509C18.1716 19.4492 18.357 19.4333 18.4853 19.418C18.5424 19.4175 18.5856 19.4595 18.5861 19.5162L18.5868 19.587M17.3882 19.6122L17.3874 19.5273C17.3868 19.4707 17.4292 19.4278 17.4863 19.4273C17.6292 19.4401 17.8006 19.4527 17.9861 19.4509L17.9912 19.989C17.8199 19.9906 17.6487 19.9921 17.4915 19.9794C17.4343 19.9658 17.3906 19.8671 17.39 19.8105" fill="#F7C608"/>
<path d="M18.4858 19.755L18.4863 19.8159C18.4867 19.8569 18.4514 19.887 18.404 19.8973C18.2853 19.8984 18.1311 19.9098 17.9887 19.9111L17.9851 19.526C18.1393 19.5246 18.2936 19.5132 18.4003 19.5023C18.4478 19.5019 18.4837 19.5313 18.484 19.5723L18.4845 19.6233M17.4876 19.6425L17.487 19.5816C17.4867 19.5405 17.522 19.5105 17.5695 19.51C17.6882 19.5188 17.8308 19.5274 17.9851 19.526L17.9887 19.9111C17.8463 19.9124 17.7038 19.9138 17.5732 19.9051C17.5256 19.8956 17.4893 19.8251 17.4889 19.7841" fill="#006233"/>
</g>
</svg>
