<svg width="36" height="26" viewBox="0 0 36 26" fill="none" xmlns="http://www.w3.org/2000/svg">
<path d="M0 4.059V8H5.628L0 4.059ZM4.664 26H13V20.163L4.664 26ZM23 20.164V26H31.335L23 20.164ZM31.337 0H23V5.837L31.337 0ZM36 21.942V18H30.369L36 21.942ZM36 8V4.059L30.371 8H36ZM13 0H4.664L13 5.837V0Z" fill="#00247D"/>
<path d="M25.14 18L34.852 24.801C35.323 24.322 35.66 23.719 35.842 23.052L28.627 18H25.14ZM23 8H25.141L34.852 1.2C34.331 0.669998 33.664 0.290998 32.915 0.114998L23 7.057V8ZM10.859 8L1.148 1.2C0.676998 1.68 0.339998 2.282 0.156998 2.949L7.372 8H10.859Z" fill="#CF1B2B"/>
<path d="M36 16H21V26H23V20.164L31.335 26H32C33.117 26 34.126 25.539 34.852 24.801L25.14 18H28.627L35.842 23.052C35.935 22.715 36 22.366 36 22V21.942L30.369 18H36V16ZM36 4C36 2.909 35.561 1.922 34.852 1.2L25.141 8H23V7.057L32.915 0.114998C32.62 0.0459979 32.316 0 32 0H31.337L23 5.837V0H21V10H36V8H30.371L36 4.059V4ZM13 0V5.837L4.664 0H4C2.882 0 1.874 0.460998 1.148 1.2L10.859 8H7.372L0.156998 2.949C0.0649977 3.286 0 3.634 0 4V4.059L5.628 8H0V10H15V0H13Z" fill="#EEEEEE"/>
<path d="M21 10V0H15V10H0V16H15V16.3397V26H21V16H36V10H21Z" fill="#CF1B2B"/>
<path fill-rule="evenodd" clip-rule="evenodd" d="M34.7988 1.16165C35.0486 1.41077 35.2662 1.69267 35.445 2H18V0H32C33.0959 0 34.0805 0.44535 34.7988 1.16165ZM9.78135 20H0V22H6.92983L9.78135 20ZM21.33 11.9L18 12V14H18.3359L21.33 11.9ZM26.8904 8H18V10H24L26.8904 8ZM15.4844 16H0V18H12.6329L15 16.3397L15.4844 16ZM32.5935 4H18V6H29.742L32.5935 4Z" fill="#B22334"/>
<path d="M0 18H12.6329L9.78135 20H0V18ZM0 14V16H15.4844L18.3359 14H18H0ZM18 10H24L21.33 11.9L18 12V10ZM18 6H29.742L26.8904 8H18V6ZM0 4C0 3.767 0.03 3.543 0.068 3.321C0.028 3.542 0 3.767 0 4ZM0.128 3.044C0.153 2.942 0.188 2.845 0.22 2.747C0.186 2.845 0.154 2.943 0.128 3.044ZM18 4H32.5935L35.445 2H18V4Z" fill="#EEEEEE"/>
<path d="M18 0H4C1.791 0 0 1.791 0 4V14H18V0Z" fill="#3C3B6E"/>
<path d="M2.00101 2.726L2.61901 3.175L2.38301 3.9L3.00001 3.452L3.61801 3.9L3.38201 3.175L4.00001 2.726H3.23601L3.00001 2L2.76501 2.726H2.00101ZM4.00101 4.726L4.61901 5.175L4.38301 5.9L5.00001 5.452L5.61801 5.9L5.38201 5.175L6.00001 4.726H5.23601L5.00001 4L4.76501 4.726H4.00101ZM8.00101 4.726L8.61901 5.175L8.38301 5.9L9.00001 5.452L9.61801 5.9L9.38201 5.175L10 4.726H9.23601L9.00001 4L8.76501 4.726H8.00101ZM12.001 4.726L12.619 5.175L12.383 5.9L13 5.452L13.618 5.9L13.382 5.175L14 4.726H13.236L13 4L12.765 4.726H12.001ZM4.00101 8.726L4.61901 9.175L4.38301 9.9L5.00001 9.452L5.61801 9.9L5.38201 9.175L6.00001 8.726H5.23601L5.00001 8L4.76501 8.726H4.00101ZM8.00101 8.726L8.61901 9.175L8.38301 9.9L9.00001 9.452L9.61801 9.9L9.38201 9.175L10 8.726H9.23601L9.00001 8L8.76501 8.726H8.00101ZM12.001 8.726L12.619 9.175L12.383 9.9L13 9.452L13.618 9.9L13.382 9.175L14 8.726H13.236L13 8L12.765 8.726H12.001ZM6.00101 2.726L6.61901 3.175L6.38301 3.9L7.00001 3.452L7.61801 3.9L7.38201 3.175L8.00001 2.726H7.23601L7.00001 2L6.76501 2.726H6.00101ZM10.001 2.726L10.619 3.175L10.383 3.9L11 3.452L11.618 3.9L11.382 3.175L12 2.726H11.236L11 2L10.765 2.726H10.001ZM14.001 2.726L14.619 3.175L14.383 3.9L15 3.452L15.618 3.9L15.382 3.175L16 2.726H15.236L15 2L14.765 2.726H14.001ZM2.00101 6.726L2.61901 7.175L2.38301 7.9L3.00001 7.452L3.61801 7.9L3.38201 7.175L4.00001 6.726H3.23601L3.00001 6L2.76501 6.726H2.00101ZM6.38301 7.9L7.00001 7.452L7.61801 7.9L7.38201 7.175L8.00001 6.726H7.23601L7.00001 6L6.76501 6.726H6.00101L6.61901 7.175L6.38301 7.9ZM10.001 6.726L10.619 7.175L10.383 7.9L11 7.452L11.618 7.9L11.382 7.175L12 6.726H11.236L11 6L10.765 6.726H10.001ZM14.001 6.726L14.619 7.175L14.383 7.9L15 7.452L15.618 7.9L15.382 7.175L16 6.726H15.236L15 6L14.765 6.726H14.001ZM2.00101 10.726L2.61901 11.175L2.38301 11.9L3.00001 11.452L3.61801 11.9L3.38201 11.175L4.00001 10.726H3.23601L3.00001 10L2.76501 10.726H2.00101ZM6.38301 11.9L7.00001 11.452L7.61801 11.9L7.38201 11.175L8.00001 10.726H7.23601L7.00001 10L6.76501 10.726H6.00101L6.61901 11.175L6.38301 11.9ZM10.001 10.726L10.619 11.175L10.383 11.9L11 11.452L11.618 11.9L11.382 11.175L12 10.726H11.236L11 10L10.765 10.726H10.001ZM14.001 10.726L14.619 11.175L14.383 11.9L15 11.452L15.618 11.9L15.382 11.175L16 10.726H15.236L15 10L14.765 10.726H14.001Z" fill="white"/>
<path d="M4.07831 24H0.555C0.862466 24.5284 1.49659 25.1593 2 25.5L2.03307 25.4761L4.07831 24Z" fill="#B22334"/>
<path fill-rule="evenodd" clip-rule="evenodd" d="M0 22H6.92983L4.07831 24H0.555C0.419 23.766 0.308 23.511 0.219 23.252C0.185 23.154 0.153 23.057 0.127 22.956C0.104 22.865 0.085 22.772 0.068 22.679C0.028 22.458 0 22.233 0 22Z" fill="white"/>
<path fill-rule="evenodd" clip-rule="evenodd" d="M13 26V20.163L4.664 26H4C3.684 26 3.38 25.955 3.086 25.885L12.6329 19V18L15 16.3397V26H13Z" fill="white"/>
<path fill-rule="evenodd" clip-rule="evenodd" d="M6.92983 22L9.78135 20L12.6329 18V19L3.086 25.885C2.7121 25.7971 2.35839 25.6587 2.03307 25.4761L4.07831 24L6.92983 22Z" fill="#CF1B2B"/>
</svg>
