<svg width="660" height="120" viewBox="0 0 660 120" fill="none" xmlns="http://www.w3.org/2000/svg">
<mask id="path-1-outside-1_7_3" maskUnits="userSpaceOnUse" x="0" y="1.05452e-10" width="660" height="120" fill="black">
<rect fill="white" y="1.05452e-10" width="660" height="120"/>
<path d="M241.238 22.64H261.206L244.31 111.344H217.558L200.406 22.64H219.99C224.94 50.8853 227.798 67.952 228.566 73.84C229.334 79.728 230.188 86.6827 231.126 94.704C232.748 79.4293 234.156 67.9947 235.35 60.4L241.238 22.64Z"/>
<path d="M353.526 79.344V111.344H334.326V22.64H363.254C370.252 22.64 375.713 24.304 379.638 27.632C383.564 30.96 385.526 35.824 385.526 42.224V58.608C385.526 68.848 382.028 75.248 375.03 77.808L388.982 111.344H367.862L355.958 79.344H353.526ZM353.526 39.024V64.112H361.078C363.041 64.112 364.406 63.6853 365.174 62.832C365.942 61.9787 366.326 60.4853 366.326 58.352V43.888C366.326 42.0107 365.9 40.7307 365.046 40.048C364.193 39.3653 362.87 39.024 361.078 39.024H353.526Z"/>
<path d="M399.276 43.376C399.276 36.5493 401.58 31.3013 406.188 27.632C410.796 23.8773 417.41 22 426.028 22C434.732 22 445.218 25.896 449.484 27.688V46.12C444.279 43.9013 434.348 39.792 427.692 39.792C424.279 39.792 421.975 40.3467 420.78 41.456C419.586 42.48 418.988 43.9733 418.988 45.936V47.856C418.988 50.2453 419.372 52.0373 420.14 53.232C420.994 54.3413 422.786 55.6213 425.516 57.072L440.108 65.264C447.106 69.104 450.604 74.864 450.604 82.544V90.48C450.604 97.392 448.044 102.725 442.924 106.48C437.804 110.149 430.594 111.984 421.292 111.984C412.076 111.984 405.122 111.003 400.428 109.04L395.216 90.48C401.019 92.9547 412.802 94.192 420.14 94.192C427.479 94.192 431.148 92.1013 431.148 87.92V86C431.148 84.0373 430.722 82.5867 429.868 81.648C429.1 80.624 427.607 79.5147 425.388 78.32L411.692 70.896C403.415 66.288 399.276 59.8027 399.276 51.44V43.376Z"/>
<path d="M544.601 79.344V111.344H525.401V22.64H554.329C561.327 22.64 566.788 24.304 570.713 27.632C574.639 30.96 576.601 35.824 576.601 42.224V58.608C576.601 68.848 573.103 75.248 566.105 77.808L580.057 111.344H558.937L547.033 79.344H544.601ZM544.601 39.024V64.112H552.153C554.116 64.112 555.481 63.6853 556.249 62.832C557.017 61.9787 557.401 60.4853 557.401 58.352V43.888C557.401 42.0107 556.975 40.7307 556.121 40.048C555.268 39.3653 553.945 39.024 552.153 39.024H544.601Z"/>
<path d="M631.439 111.344L627.727 90.864H610.191L606.735 111.344H588.431L605.839 22.64H632.591L649.743 111.344H631.439ZM612.879 74.608H624.911L618.767 40.304L612.879 74.608Z"/>
<path d="M465.288 22.64H513.216V41.28H484.488V57.096H509.76V76.736H484.488V92.704H513.216V111.344H465.288V22.64Z"/>
<path d="M274.288 22.64H322.216V41.28H293.488V57.096H318.76V76.736H293.488V92.704H322.216V111.344H274.288V22.64Z"/>
<path fill-rule="evenodd" clip-rule="evenodd" d="M152.663 93.1162C148.722 108.481 152.85 111.97 158.485 111.97C164.109 111.97 178.665 106.727 191.991 93.1002L188.795 88.7453C183.352 93.1055 177.813 95.2027 176.125 95.2027C174.809 95.2027 174.25 93.4586 175.56 88.4029L182.969 59.7697C185.781 49.2997 184.843 42.4892 179.214 42.4892C172.45 42.4892 156.69 49.3425 142.991 61.0376L145.803 65.7456C150.133 62.7764 157.441 59.7697 159.129 59.7697C160.439 59.7697 160.253 61.5191 159.129 65.874L152.663 93.1162Z"/>
<path d="M199.986 16.4118C200.246 16.3399 200.386 16.1746 200.404 15.9157C200.423 15.6568 200.308 15.4732 200.061 15.365L181.092 8.03215C181.047 8.01759 180.989 8.00783 180.92 8.00286C180.851 7.9979 180.793 7.99939 180.746 8.00734L160.925 12.5607C160.665 12.6325 160.525 12.7979 160.507 13.0568C160.488 13.3157 160.603 13.4993 160.85 13.6075L165.426 15.3663L164.184 18.1515C163.344 18.3643 162.815 18.8677 162.595 19.6616C162.388 20.4121 162.55 21.0835 163.083 21.6757L160.159 28.4716C160.095 28.6177 160.102 28.766 160.18 28.9165C160.247 29.0639 160.365 29.1607 160.532 29.207L163.745 30.0955C163.912 30.1417 164.062 30.1189 164.196 30.0271C164.341 29.9383 164.423 29.8147 164.443 29.6562L165.426 22.3236C166.187 22.0892 166.671 21.5968 166.879 20.8463C167.099 20.0523 166.911 19.3624 166.317 18.7764L166.351 18.6754C166.704 17.6474 166.963 16.8928 167.491 16.1601L169.15 16.7979L168.633 20.132C168.582 19.922 168.605 20.3449 168.633 20.132C167.123 22.4158 166.367 24.9933 166.367 27.2323C166.181 33.8663 170.122 37.8788 176.881 37.8788C184.95 37.8788 191.149 31.4213 191.149 24.4396C191.149 23.3568 191.016 22.3007 190.748 21.3016C190.747 21.3742 190.758 21.2305 190.748 21.3016L191.314 18.4039L199.986 16.4118Z"/>
<path d="M41.92 22H61.12V89.072C61.12 96.0693 58.8587 101.659 54.336 105.84C49.8987 109.936 43.2853 111.984 34.496 111.984C25.792 111.984 19.1787 109.936 14.656 105.84C10.2187 101.744 8 96.1547 8 89.072V22H27.2V88.048C27.2 92.3147 29.632 94.448 34.496 94.448C39.4453 94.448 41.92 92.3147 41.92 88.048V22Z"/>
<path d="M114.047 22H132.991V110.704H114.559C101.93 78.448 94.6337 58.992 92.671 52.336C94.463 59.0773 95.359 70.6827 95.359 87.152V110.704H76.415V22H95.359L107.007 51.696C111.956 64.4107 115.284 74.0533 116.991 80.624C115.028 72.3467 114.047 60.2293 114.047 44.272V22Z"/>
</mask>
<path d="M241.238 22.64H261.206L244.31 111.344H217.558L200.406 22.64H219.99C224.94 50.8853 227.798 67.952 228.566 73.84C229.334 79.728 230.188 86.6827 231.126 94.704C232.748 79.4293 234.156 67.9947 235.35 60.4L241.238 22.64Z" fill="#6ED3F0"/>
<path d="M353.526 79.344V111.344H334.326V22.64H363.254C370.252 22.64 375.713 24.304 379.638 27.632C383.564 30.96 385.526 35.824 385.526 42.224V58.608C385.526 68.848 382.028 75.248 375.03 77.808L388.982 111.344H367.862L355.958 79.344H353.526ZM353.526 39.024V64.112H361.078C363.041 64.112 364.406 63.6853 365.174 62.832C365.942 61.9787 366.326 60.4853 366.326 58.352V43.888C366.326 42.0107 365.9 40.7307 365.046 40.048C364.193 39.3653 362.87 39.024 361.078 39.024H353.526Z" fill="#6ED3F0"/>
<path d="M399.276 43.376C399.276 36.5493 401.58 31.3013 406.188 27.632C410.796 23.8773 417.41 22 426.028 22C434.732 22 445.218 25.896 449.484 27.688V46.12C444.279 43.9013 434.348 39.792 427.692 39.792C424.279 39.792 421.975 40.3467 420.78 41.456C419.586 42.48 418.988 43.9733 418.988 45.936V47.856C418.988 50.2453 419.372 52.0373 420.14 53.232C420.994 54.3413 422.786 55.6213 425.516 57.072L440.108 65.264C447.106 69.104 450.604 74.864 450.604 82.544V90.48C450.604 97.392 448.044 102.725 442.924 106.48C437.804 110.149 430.594 111.984 421.292 111.984C412.076 111.984 405.122 111.003 400.428 109.04L395.216 90.48C401.019 92.9547 412.802 94.192 420.14 94.192C427.479 94.192 431.148 92.1013 431.148 87.92V86C431.148 84.0373 430.722 82.5867 429.868 81.648C429.1 80.624 427.607 79.5147 425.388 78.32L411.692 70.896C403.415 66.288 399.276 59.8027 399.276 51.44V43.376Z" fill="#6ED3F0"/>
<path d="M544.601 79.344V111.344H525.401V22.64H554.329C561.327 22.64 566.788 24.304 570.713 27.632C574.639 30.96 576.601 35.824 576.601 42.224V58.608C576.601 68.848 573.103 75.248 566.105 77.808L580.057 111.344H558.937L547.033 79.344H544.601ZM544.601 39.024V64.112H552.153C554.116 64.112 555.481 63.6853 556.249 62.832C557.017 61.9787 557.401 60.4853 557.401 58.352V43.888C557.401 42.0107 556.975 40.7307 556.121 40.048C555.268 39.3653 553.945 39.024 552.153 39.024H544.601Z" fill="#6ED3F0"/>
<path d="M631.439 111.344L627.727 90.864H610.191L606.735 111.344H588.431L605.839 22.64H632.591L649.743 111.344H631.439ZM612.879 74.608H624.911L618.767 40.304L612.879 74.608Z" fill="#6ED3F0"/>
<path d="M465.288 22.64H513.216V41.28H484.488V57.096H509.76V76.736H484.488V92.704H513.216V111.344H465.288V22.64Z" fill="#6ED3F0"/>
<path d="M274.288 22.64H322.216V41.28H293.488V57.096H318.76V76.736H293.488V92.704H322.216V111.344H274.288V22.64Z" fill="#6ED3F0"/>
<path fill-rule="evenodd" clip-rule="evenodd" d="M152.663 93.1162C148.722 108.481 152.85 111.97 158.485 111.97C164.109 111.97 178.665 106.727 191.991 93.1002L188.795 88.7453C183.352 93.1055 177.813 95.2027 176.125 95.2027C174.809 95.2027 174.25 93.4586 175.56 88.4029L182.969 59.7697C185.781 49.2997 184.843 42.4892 179.214 42.4892C172.45 42.4892 156.69 49.3425 142.991 61.0376L145.803 65.7456C150.133 62.7764 157.441 59.7697 159.129 59.7697C160.439 59.7697 160.253 61.5191 159.129 65.874L152.663 93.1162Z" fill="#6ED3EF"/>
<path d="M199.986 16.4118C200.246 16.3399 200.386 16.1746 200.404 15.9157C200.423 15.6568 200.308 15.4732 200.061 15.365L181.092 8.03215C181.047 8.01759 180.989 8.00783 180.92 8.00286C180.851 7.9979 180.793 7.99939 180.746 8.00734L160.925 12.5607C160.665 12.6325 160.525 12.7979 160.507 13.0568C160.488 13.3157 160.603 13.4993 160.85 13.6075L165.426 15.3663L164.184 18.1515C163.344 18.3643 162.815 18.8677 162.595 19.6616C162.388 20.4121 162.55 21.0835 163.083 21.6757L160.159 28.4716C160.095 28.6177 160.102 28.766 160.18 28.9165C160.247 29.0639 160.365 29.1607 160.532 29.207L163.745 30.0955C163.912 30.1417 164.062 30.1189 164.196 30.0271C164.341 29.9383 164.423 29.8147 164.443 29.6562L165.426 22.3236C166.187 22.0892 166.671 21.5968 166.879 20.8463C167.099 20.0523 166.911 19.3624 166.317 18.7764L166.351 18.6754C166.704 17.6474 166.963 16.8928 167.491 16.1601L169.15 16.7979L168.633 20.132C168.582 19.922 168.605 20.3449 168.633 20.132C167.123 22.4158 166.367 24.9933 166.367 27.2323C166.181 33.8663 170.122 37.8788 176.881 37.8788C184.95 37.8788 191.149 31.4213 191.149 24.4396C191.149 23.3568 191.016 22.3007 190.748 21.3016C190.747 21.3742 190.758 21.2305 190.748 21.3016L191.314 18.4039L199.986 16.4118Z" fill="#6ED3EF"/>
<path d="M41.92 22H61.12V89.072C61.12 96.0693 58.8587 101.659 54.336 105.84C49.8987 109.936 43.2853 111.984 34.496 111.984C25.792 111.984 19.1787 109.936 14.656 105.84C10.2187 101.744 8 96.1547 8 89.072V22H27.2V88.048C27.2 92.3147 29.632 94.448 34.496 94.448C39.4453 94.448 41.92 92.3147 41.92 88.048V22Z" fill="#6ED3F0"/>
<path d="M114.047 22H132.991V110.704H114.559C101.93 78.448 94.6337 58.992 92.671 52.336C94.463 59.0773 95.359 70.6827 95.359 87.152V110.704H76.415V22H95.359L107.007 51.696C111.956 64.4107 115.284 74.0533 116.991 80.624C115.028 72.3467 114.047 60.2293 114.047 44.272V22Z" fill="#6ED3F0"/>
<path d="M241.238 22.64V14.64H234.389L233.334 21.4074L241.238 22.64ZM261.206 22.64L269.065 24.1369L270.874 14.64H261.206V22.64ZM244.31 111.344V119.344H250.93L252.169 112.841L244.31 111.344ZM217.558 111.344L209.704 112.863L210.957 119.344H217.558V111.344ZM200.406 22.64V14.64H190.711L192.552 24.1588L200.406 22.64ZM219.99 22.64L227.87 21.2592L226.71 14.64H219.99V22.64ZM231.126 94.704L223.181 95.6338L239.082 95.5484L231.126 94.704ZM235.35 60.4L243.253 61.6431L243.255 61.6326L235.35 60.4ZM353.526 79.344V71.344H345.526V79.344H353.526ZM353.526 111.344V119.344H361.526V111.344H353.526ZM334.326 111.344H326.326V119.344H334.326V111.344ZM334.326 22.64V14.64H326.326V22.64H334.326ZM379.638 27.632L384.812 21.5299L384.812 21.5299L379.638 27.632ZM375.03 77.808L372.282 70.295L364.434 73.166L367.644 80.8809L375.03 77.808ZM388.982 111.344V119.344H400.975L396.369 108.271L388.982 111.344ZM367.862 111.344L360.364 114.133L362.303 119.344H367.862V111.344ZM355.958 79.344L363.456 76.5547L361.518 71.344H355.958V79.344ZM353.526 39.024V31.024H345.526V39.024H353.526ZM353.526 64.112H345.526V72.112H353.526V64.112ZM365.174 62.832L371.121 68.1837L371.121 68.1837L365.174 62.832ZM365.046 40.048L370.044 33.8011L370.044 33.801L365.046 40.048ZM406.188 27.632L411.172 33.8902L411.207 33.8623L411.242 33.8339L406.188 27.632ZM449.484 27.688H457.484V22.371L452.582 20.3121L449.484 27.688ZM449.484 46.12L446.348 53.4794L457.484 58.2262V46.12H449.484ZM420.78 41.456L425.987 47.5301L426.107 47.4266L426.224 47.3183L420.78 41.456ZM420.14 53.232L413.411 57.5581L413.594 57.8421L413.799 58.1097L420.14 53.232ZM425.516 57.072L429.433 50.0961L429.352 50.0507L429.27 50.0071L425.516 57.072ZM440.108 65.264L436.192 72.2399L436.226 72.2588L436.26 72.2773L440.108 65.264ZM442.924 106.48L447.585 112.983L447.62 112.957L447.655 112.931L442.924 106.48ZM400.428 109.04L392.726 111.203L393.772 114.928L397.342 116.421L400.428 109.04ZM395.216 90.48L398.355 83.1213L383.002 76.5737L387.514 92.6429L395.216 90.48ZM429.868 81.648L423.468 86.448L423.695 86.75L423.949 87.0294L429.868 81.648ZM425.388 78.32L421.576 85.3532L421.586 85.3585L421.596 85.3638L425.388 78.32ZM411.692 70.896L407.801 77.8859L407.84 77.9077L407.88 77.9292L411.692 70.896ZM544.601 79.344V71.344H536.601V79.344H544.601ZM544.601 111.344V119.344H552.601V111.344H544.601ZM525.401 111.344H517.401V119.344H525.401V111.344ZM525.401 22.64V14.64H517.401V22.64H525.401ZM570.713 27.632L575.887 21.5299L575.887 21.5299L570.713 27.632ZM566.105 77.808L563.357 70.295L555.509 73.166L558.719 80.8809L566.105 77.808ZM580.057 111.344V119.344H592.05L587.444 108.271L580.057 111.344ZM558.937 111.344L551.439 114.133L553.378 119.344H558.937V111.344ZM547.033 79.344L554.531 76.5547L552.593 71.344H547.033V79.344ZM544.601 39.024V31.024H536.601V39.024H544.601ZM544.601 64.112H536.601V72.112H544.601V64.112ZM556.249 62.832L562.196 68.1837L562.196 68.1837L556.249 62.832ZM556.121 40.048L561.119 33.8011L561.119 33.801L556.121 40.048ZM631.439 111.344L623.568 112.771L624.759 119.344H631.439V111.344ZM627.727 90.864L635.599 89.4372L634.408 82.864H627.727V90.864ZM610.191 90.864V82.864H603.428L602.303 89.5328L610.191 90.864ZM606.735 111.344V119.344H613.498L614.624 112.675L606.735 111.344ZM588.431 111.344L580.581 109.803L578.709 119.344H588.431V111.344ZM605.839 22.64V14.64H599.257L597.989 21.0994L605.839 22.64ZM632.591 22.64L640.446 21.1212L639.193 14.64H632.591V22.64ZM649.743 111.344V119.344H659.438L657.598 109.825L649.743 111.344ZM612.879 74.608L604.995 73.2547L603.389 82.608H612.879V74.608ZM624.911 74.608V82.608H634.472L632.786 73.1976L624.911 74.608ZM618.767 40.304L626.642 38.8936L610.883 38.9507L618.767 40.304ZM465.288 22.64V14.64H457.288V22.64H465.288ZM513.216 22.64H521.216V14.64H513.216V22.64ZM513.216 41.28V49.28H521.216V41.28H513.216ZM484.488 41.28V33.28H476.488V41.28H484.488ZM484.488 57.096H476.488V65.096H484.488V57.096ZM509.76 57.096H517.76V49.096H509.76V57.096ZM509.76 76.736V84.736H517.76V76.736H509.76ZM484.488 76.736V68.736H476.488V76.736H484.488ZM484.488 92.704H476.488V100.704H484.488V92.704ZM513.216 92.704H521.216V84.704H513.216V92.704ZM513.216 111.344V119.344H521.216V111.344H513.216ZM465.288 111.344H457.288V119.344H465.288V111.344ZM274.288 22.64V14.64H266.288V22.64H274.288ZM322.216 22.64H330.216V14.64H322.216V22.64ZM322.216 41.28V49.28H330.216V41.28H322.216ZM293.488 41.28V33.28H285.488V41.28H293.488ZM293.488 57.096H285.488V65.096H293.488V57.096ZM318.76 57.096H326.76V49.096H318.76V57.096ZM318.76 76.736V84.736H326.76V76.736H318.76ZM293.488 76.736V68.736H285.488V76.736H293.488ZM293.488 92.704H285.488V100.704H293.488V92.704ZM322.216 92.704H330.216V84.704H322.216V92.704ZM322.216 111.344V119.344H330.216V111.344H322.216ZM274.288 111.344H266.288V119.344H274.288V111.344ZM152.663 93.1162L160.412 95.1039L160.43 95.034L160.447 94.9637L152.663 93.1162ZM191.991 93.1002L197.711 98.6936L202.457 93.8402L198.441 88.3673L191.991 93.1002ZM188.795 88.7453L195.245 84.0124L190.308 77.2837L183.794 82.5015L188.795 88.7453ZM175.56 88.4029L183.304 90.4098L183.305 90.4068L175.56 88.4029ZM182.969 59.7697L175.242 57.6945L175.233 57.7301L175.224 57.7657L182.969 59.7697ZM142.991 61.0376L137.797 54.9533L132.658 59.34L136.123 65.14L142.991 61.0376ZM145.803 65.7456L138.935 69.848L143.303 77.1603L150.327 72.3434L145.803 65.7456ZM159.129 65.874L151.383 63.8751L151.363 63.9506L151.345 64.0266L159.129 65.874ZM199.986 16.4118L201.777 24.2087L201.946 24.1698L202.113 24.1237L199.986 16.4118ZM200.061 15.365L203.266 8.0352L203.107 7.96568L202.945 7.90312L200.061 15.365ZM181.092 8.03215L183.977 0.570292L183.759 0.486238L183.537 0.414988L181.092 8.03215ZM180.92 8.00286L181.492 0.0233212L180.92 8.00286ZM180.746 8.00734L179.411 0.119388L179.182 0.158257L178.955 0.210435L180.746 8.00734ZM160.925 12.5607L159.134 4.7638L158.965 4.80265L158.798 4.8488L160.925 12.5607ZM160.85 13.6075L157.645 20.9373L157.811 21.0099L157.98 21.0749L160.85 13.6075ZM165.426 15.3663L172.732 18.6242L176.166 10.9239L168.296 7.89889L165.426 15.3663ZM164.184 18.1515L166.15 25.9062L169.91 24.9529L171.49 21.4094L164.184 18.1515ZM162.595 19.6616L170.306 21.794L170.306 21.794L162.595 19.6616ZM163.083 21.6757L170.432 24.8377L172.456 20.1333L169.031 16.3257L163.083 21.6757ZM160.159 28.4716L167.479 31.6992L167.493 31.6664L167.508 31.6335L160.159 28.4716ZM160.18 28.9165L167.457 25.5934L167.37 25.4032L167.274 25.2178L160.18 28.9165ZM160.532 29.207L162.664 21.4964L162.664 21.4964L160.532 29.207ZM163.745 30.0955L161.612 37.8061L161.612 37.8061L163.745 30.0955ZM164.196 30.0271L160.011 23.2092L159.832 23.3186L159.66 23.4372L164.196 30.0271ZM164.443 29.6562L156.514 28.5932L156.509 28.6287L156.504 28.6642L164.443 29.6562ZM165.426 22.3236L163.072 14.6777L158.177 16.1846L157.497 21.2605L165.426 22.3236ZM166.879 20.8463L159.168 18.7139L159.168 18.7139L166.879 20.8463ZM166.317 18.7764L158.75 16.1801L157.116 20.9411L160.701 24.4743L166.317 18.7764ZM166.351 18.6754L173.918 21.2717L173.919 21.2708L166.351 18.6754ZM167.491 16.1601L170.361 8.69273L164.607 6.48093L161.002 11.4814L167.491 16.1601ZM169.15 16.7979L177.056 18.0234L178.044 11.646L172.021 9.33054L169.15 16.7979ZM166.367 27.2323L174.364 27.457L174.367 27.3446V27.2323H166.367ZM190.748 21.3016L182.823 20.205L182.755 20.7024L182.748 21.2045L190.748 21.3016ZM191.314 18.4039L189.523 10.607L184.46 11.7702L183.463 16.8688L191.314 18.4039ZM41.92 22V14H33.92V22H41.92ZM61.12 22H69.12V14H61.12V22ZM54.336 105.84L59.7622 111.718L59.7668 111.714L54.336 105.84ZM14.656 105.84L9.22976 111.718L9.25764 111.744L9.28577 111.77L14.656 105.84ZM8 22V14H0V22H8ZM27.2 22H35.2V14H27.2V22ZM114.047 22V14H106.047V22H114.047ZM132.991 22H140.991V14H132.991V22ZM132.991 110.704V118.704H140.991V110.704H132.991ZM114.559 110.704L107.11 113.621L109.1 118.704H114.559V110.704ZM92.671 52.336L100.344 50.0733L84.9395 54.3912L92.671 52.336ZM95.359 110.704V118.704H103.359V110.704H95.359ZM76.415 110.704H68.415V118.704H76.415V110.704ZM76.415 22V14H68.415V22H76.415ZM95.359 22L102.807 19.0788L100.814 14H95.359V22ZM107.007 51.696L114.462 48.794L114.458 48.7844L114.455 48.7748L107.007 51.696ZM116.991 80.624L109.248 82.6352L124.775 78.7783L116.991 80.624ZM241.238 22.64V30.64H261.206V22.64V14.64H241.238V22.64ZM261.206 22.64L253.348 21.1431L236.452 109.847L244.31 111.344L252.169 112.841L269.065 24.1369L261.206 22.64ZM244.31 111.344V103.344H217.558V111.344V119.344H244.31V111.344ZM217.558 111.344L225.413 109.825L208.261 21.1212L200.406 22.64L192.552 24.1588L209.704 112.863L217.558 111.344ZM200.406 22.64V30.64H219.99V22.64V14.64H200.406V22.64ZM219.99 22.64L212.11 24.0208C217.075 52.3518 219.894 69.2046 220.634 74.8747L228.566 73.84L236.499 72.8053C235.703 66.6994 232.805 49.4188 227.87 21.2592L219.99 22.64ZM228.566 73.84L220.634 74.8747C221.396 80.7179 222.245 87.636 223.181 95.6338L231.126 94.704L239.072 93.7742C238.131 85.7293 237.273 78.7381 236.499 72.8053L228.566 73.84ZM231.126 94.704L239.082 95.5484C240.7 80.3035 242.091 69.0318 243.253 61.6431L235.35 60.4L227.448 59.1569C226.22 66.9575 224.796 78.5552 223.171 93.8596L231.126 94.704ZM235.35 60.4L243.255 61.6326L249.143 23.8726L241.238 22.64L233.334 21.4074L227.446 59.1674L235.35 60.4ZM353.526 79.344H345.526V111.344H353.526H361.526V79.344H353.526ZM353.526 111.344V103.344H334.326V111.344V119.344H353.526V111.344ZM334.326 111.344H342.326V22.64H334.326H326.326V111.344H334.326ZM334.326 22.64V30.64H363.254V22.64V14.64H334.326V22.64ZM363.254 22.64V30.64C369.04 30.64 372.432 32.0104 374.465 33.7341L379.638 27.632L384.812 21.5299C378.994 16.5976 371.464 14.64 363.254 14.64V22.64ZM379.638 27.632L374.465 33.734C376.171 35.1809 377.526 37.5519 377.526 42.224H385.526H393.526C393.526 34.0961 390.956 26.7391 384.812 21.5299L379.638 27.632ZM385.526 42.224H377.526V58.608H385.526H393.526V42.224H385.526ZM385.526 58.608H377.526C377.526 62.8987 376.781 65.6069 375.883 67.2506C375.086 68.7081 374.001 69.6659 372.282 70.295L375.03 77.808L377.779 85.321C383.057 83.3901 387.22 79.8679 389.922 74.9254C392.522 70.1691 393.526 64.5573 393.526 58.608H385.526ZM375.03 77.808L367.644 80.8809L381.596 114.417L388.982 111.344L396.369 108.271L382.417 74.7351L375.03 77.808ZM388.982 111.344V103.344H367.862V111.344V119.344H388.982V111.344ZM367.862 111.344L375.36 108.555L363.456 76.5547L355.958 79.344L348.46 82.1333L360.364 114.133L367.862 111.344ZM355.958 79.344V71.344H353.526V79.344V87.344H355.958V79.344ZM353.526 39.024H345.526V64.112H353.526H361.526V39.024H353.526ZM353.526 64.112V72.112H361.078V64.112V56.112H353.526V64.112ZM361.078 64.112V72.112C363.78 72.112 368.049 71.597 371.121 68.1837L365.174 62.832L359.228 57.4803C360.014 56.6067 360.835 56.2666 361.188 56.1562C361.505 56.0571 361.529 56.112 361.078 56.112V64.112ZM365.174 62.832L371.121 68.1837C373.955 65.0347 374.326 60.9581 374.326 58.352H366.326H358.326C358.326 58.9831 358.265 59.1788 358.29 59.0797C358.314 58.9876 358.505 58.2835 359.228 57.4803L365.174 62.832ZM366.326 58.352H374.326V43.888H366.326H358.326V58.352H366.326ZM366.326 43.888H374.326C374.326 41.2671 373.806 36.8106 370.044 33.8011L365.046 40.048L360.049 46.2949C359.016 45.4688 358.576 44.5285 358.417 44.0497C358.275 43.6241 358.326 43.4987 358.326 43.888H366.326ZM365.046 40.048L370.044 33.801C367.115 31.4577 363.613 31.024 361.078 31.024V39.024V47.024C361.497 47.024 361.573 47.067 361.415 47.0262C361.248 46.983 360.696 46.8128 360.049 46.295L365.046 40.048ZM361.078 39.024V31.024H353.526V39.024V47.024H361.078V39.024ZM399.276 43.376H407.276C407.276 38.5506 408.786 35.7898 411.172 33.8902L406.188 27.632L401.205 21.3738C394.374 26.8129 391.276 34.5481 391.276 43.376H399.276ZM406.188 27.632L411.242 33.8339C413.903 31.6658 418.445 30 426.028 30V22V14C416.375 14 407.69 16.0888 401.135 21.4301L406.188 27.632ZM426.028 22V30C432.996 30 442.19 33.3013 446.387 35.0639L449.484 27.688L452.582 20.3121C448.246 18.4907 436.469 14 426.028 14V22ZM449.484 27.688H441.484V46.12H449.484H457.484V27.688H449.484ZM449.484 46.12L452.621 38.7606C449.989 37.6388 445.942 35.9425 441.633 34.5247C437.499 33.1646 432.35 31.792 427.692 31.792V39.792V47.792C429.691 47.792 432.835 48.4741 436.632 49.7232C440.254 50.9148 443.774 52.3826 446.348 53.4794L449.484 46.12ZM427.692 39.792V31.792C425.606 31.792 423.5 31.9563 421.532 32.4302C419.611 32.8927 417.295 33.7754 415.337 35.5937L420.78 41.456L426.224 47.3183C425.827 47.6872 425.484 47.8749 425.32 47.9525C425.161 48.0284 425.125 48.0223 425.277 47.9858C425.612 47.905 426.366 47.792 427.692 47.792V39.792ZM420.78 41.456L415.574 35.3819C412.18 38.2909 410.988 42.2642 410.988 45.936H418.988H426.988C426.988 45.7546 427.017 45.9337 426.864 46.3151C426.695 46.7392 426.392 47.1829 425.987 47.5301L420.78 41.456ZM418.988 45.936H410.988V47.856H418.988H426.988V45.936H418.988ZM418.988 47.856H410.988C410.988 50.846 411.422 54.4648 413.411 57.5581L420.14 53.232L426.87 48.9059C427.133 49.316 427.145 49.53 427.099 49.3157C427.054 49.1075 426.988 48.6469 426.988 47.856H418.988ZM420.14 53.232L413.799 58.1097C415.789 60.6961 418.955 62.6454 421.763 64.1369L425.516 57.072L429.27 50.0071C428.101 49.3865 427.295 48.8864 426.774 48.5141C426.197 48.1016 426.235 48.0334 426.481 48.3543L420.14 53.232ZM425.516 57.072L421.6 64.0479L436.192 72.2399L440.108 65.264L444.025 58.2881L429.433 50.0961L425.516 57.072ZM440.108 65.264L436.26 72.2773C438.756 73.6475 440.246 75.1402 441.143 76.6172C442.03 78.0781 442.604 79.9599 442.604 82.544H450.604H458.604C458.604 77.4481 457.429 72.6099 454.818 68.3108C452.216 64.0278 448.458 60.7205 443.957 58.2507L440.108 65.264ZM450.604 82.544H442.604V90.48H450.604H458.604V82.544H450.604ZM450.604 90.48H442.604C442.604 95.1062 441.056 97.9299 438.193 100.029L442.924 106.48L447.655 112.931C455.033 107.521 458.604 99.6778 458.604 90.48H450.604ZM442.924 106.48L438.264 99.9775C435.011 102.309 429.68 103.984 421.292 103.984V111.984V119.984C431.507 119.984 440.598 117.99 447.585 112.983L442.924 106.48ZM421.292 111.984V103.984C412.416 103.984 406.734 103.005 403.515 101.659L400.428 109.04L397.342 116.421C403.51 119 411.737 119.984 421.292 119.984V111.984ZM400.428 109.04L408.13 106.877L402.918 88.3171L395.216 90.48L387.514 92.6429L392.726 111.203L400.428 109.04ZM395.216 90.48L392.078 97.8387C396.008 99.5147 401.284 100.552 406.033 101.192C410.951 101.855 416.089 102.192 420.14 102.192V94.192V86.192C416.853 86.192 412.43 85.91 408.171 85.3357C403.744 84.7388 400.227 83.9199 398.355 83.1213L395.216 90.48ZM420.14 94.192V102.192C424.307 102.192 428.725 101.644 432.357 99.5749C436.658 97.1243 439.148 92.9207 439.148 87.92H431.148H423.148C423.148 87.7629 423.195 87.2408 423.555 86.6243C423.914 86.0118 424.333 85.7315 424.436 85.6731C424.49 85.6425 424.238 85.7933 423.464 85.9405C422.704 86.0848 421.619 86.192 420.14 86.192V94.192ZM431.148 87.92H439.148V86H431.148H423.148V87.92H431.148ZM431.148 86H439.148C439.148 83.095 438.548 79.303 435.788 76.2666L429.868 81.648L423.949 87.0294C423.42 86.4477 423.217 85.9122 423.153 85.6974C423.098 85.5092 423.148 85.5686 423.148 86H431.148ZM429.868 81.648L436.268 76.848C434.411 74.3719 431.62 72.5895 429.181 71.2762L425.388 78.32L421.596 85.3638C422.475 85.8373 423.052 86.2104 423.402 86.4699C423.784 86.7535 423.704 86.7622 423.468 86.448L429.868 81.648ZM425.388 78.32L429.201 71.2868L415.505 63.8628L411.692 70.896L407.88 77.9292L421.576 85.3532L425.388 78.32ZM411.692 70.896L415.584 63.9061C409.435 60.4831 407.276 56.4613 407.276 51.44H399.276H391.276C391.276 63.1441 397.395 72.0929 407.801 77.8859L411.692 70.896ZM399.276 51.44H407.276V43.376H399.276H391.276V51.44H399.276ZM544.601 79.344H536.601V111.344H544.601H552.601V79.344H544.601ZM544.601 111.344V103.344H525.401V111.344V119.344H544.601V111.344ZM525.401 111.344H533.401V22.64H525.401H517.401V111.344H525.401ZM525.401 22.64V30.64H554.329V22.64V14.64H525.401V22.64ZM554.329 22.64V30.64C560.115 30.64 563.507 32.0104 565.54 33.7341L570.713 27.632L575.887 21.5299C570.069 16.5976 562.539 14.64 554.329 14.64V22.64ZM570.713 27.632L565.54 33.734C567.246 35.1809 568.601 37.5519 568.601 42.224H576.601H584.601C584.601 34.0961 582.031 26.7391 575.887 21.5299L570.713 27.632ZM576.601 42.224H568.601V58.608H576.601H584.601V42.224H576.601ZM576.601 58.608H568.601C568.601 62.8987 567.856 65.6069 566.958 67.2506C566.161 68.7081 565.076 69.6659 563.357 70.295L566.105 77.808L568.854 85.321C574.132 83.3901 578.295 79.8679 580.997 74.9254C583.597 70.1691 584.601 64.5573 584.601 58.608H576.601ZM566.105 77.808L558.719 80.8809L572.671 114.417L580.057 111.344L587.444 108.271L573.492 74.7351L566.105 77.808ZM580.057 111.344V103.344H558.937V111.344V119.344H580.057V111.344ZM558.937 111.344L566.435 108.555L554.531 76.5547L547.033 79.344L539.535 82.1333L551.439 114.133L558.937 111.344ZM547.033 79.344V71.344H544.601V79.344V87.344H547.033V79.344ZM544.601 39.024H536.601V64.112H544.601H552.601V39.024H544.601ZM544.601 64.112V72.112H552.153V64.112V56.112H544.601V64.112ZM552.153 64.112V72.112C554.855 72.112 559.124 71.597 562.196 68.1837L556.249 62.832L550.303 57.4803C551.089 56.6068 551.91 56.2666 552.263 56.1562C552.58 56.0571 552.604 56.112 552.153 56.112V64.112ZM556.249 62.832L562.196 68.1837C565.03 65.0348 565.401 60.9584 565.401 58.352H557.401H549.401C549.401 58.983 549.34 59.1787 549.365 59.0796C549.389 58.9874 549.58 58.2834 550.303 57.4803L556.249 62.832ZM557.401 58.352H565.401V43.888H557.401H549.401V58.352H557.401ZM557.401 43.888H565.401C565.401 41.2668 564.881 36.8105 561.119 33.8011L556.121 40.048L551.124 46.2949C550.091 45.4689 549.651 44.5286 549.492 44.0499C549.35 43.6242 549.401 43.4989 549.401 43.888H557.401ZM556.121 40.048L561.119 33.801C558.19 31.4578 554.689 31.024 552.153 31.024V39.024V47.024C552.572 47.024 552.648 47.067 552.49 47.0262C552.323 46.983 551.771 46.8127 551.124 46.295L556.121 40.048ZM552.153 39.024V31.024H544.601V39.024V47.024H552.153V39.024ZM631.439 111.344L639.311 109.917L635.599 89.4372L627.727 90.864L619.856 92.2908L623.568 112.771L631.439 111.344ZM627.727 90.864V82.864H610.191V90.864V98.864H627.727V90.864ZM610.191 90.864L602.303 89.5328L598.847 110.013L606.735 111.344L614.624 112.675L618.08 92.1952L610.191 90.864ZM606.735 111.344V103.344H588.431V111.344V119.344H606.735V111.344ZM588.431 111.344L596.282 112.885L613.69 24.1806L605.839 22.64L597.989 21.0994L580.581 109.803L588.431 111.344ZM605.839 22.64V30.64H632.591V22.64V14.64H605.839V22.64ZM632.591 22.64L624.737 24.1588L641.889 112.863L649.743 111.344L657.598 109.825L640.446 21.1212L632.591 22.64ZM649.743 111.344V103.344H631.439V111.344V119.344H649.743V111.344ZM612.879 74.608V82.608H624.911V74.608V66.608H612.879V74.608ZM624.911 74.608L632.786 73.1976L626.642 38.8936L618.767 40.304L610.893 41.7144L617.037 76.0184L624.911 74.608ZM618.767 40.304L610.883 38.9507L604.995 73.2547L612.879 74.608L620.764 75.9613L626.652 41.6573L618.767 40.304ZM465.288 22.64V30.64H513.216V22.64V14.64H465.288V22.64ZM513.216 22.64H505.216V41.28H513.216H521.216V22.64H513.216ZM513.216 41.28V33.28H484.488V41.28V49.28H513.216V41.28ZM484.488 41.28H476.488V57.096H484.488H492.488V41.28H484.488ZM484.488 57.096V65.096H509.76V57.096V49.096H484.488V57.096ZM509.76 57.096H501.76V76.736H509.76H517.76V57.096H509.76ZM509.76 76.736V68.736H484.488V76.736V84.736H509.76V76.736ZM484.488 76.736H476.488V92.704H484.488H492.488V76.736H484.488ZM484.488 92.704V100.704H513.216V92.704V84.704H484.488V92.704ZM513.216 92.704H505.216V111.344H513.216H521.216V92.704H513.216ZM513.216 111.344V103.344H465.288V111.344V119.344H513.216V111.344ZM465.288 111.344H473.288V22.64H465.288H457.288V111.344H465.288ZM274.288 22.64V30.64H322.216V22.64V14.64H274.288V22.64ZM322.216 22.64H314.216V41.28H322.216H330.216V22.64H322.216ZM322.216 41.28V33.28H293.488V41.28V49.28H322.216V41.28ZM293.488 41.28H285.488V57.096H293.488H301.488V41.28H293.488ZM293.488 57.096V65.096H318.76V57.096V49.096H293.488V57.096ZM318.76 57.096H310.76V76.736H318.76H326.76V57.096H318.76ZM318.76 76.736V68.736H293.488V76.736V84.736H318.76V76.736ZM293.488 76.736H285.488V92.704H293.488H301.488V76.736H293.488ZM293.488 92.704V100.704H322.216V92.704V84.704H293.488V92.704ZM322.216 92.704H314.216V111.344H322.216H330.216V92.704H322.216ZM322.216 111.344V103.344H274.288V111.344V119.344H322.216V111.344ZM274.288 111.344H282.288V22.64H274.288H266.288V111.344H274.288ZM152.663 93.1162L144.914 91.1285C142.873 99.0842 142.255 106.125 144.675 111.559C146.027 114.595 148.23 116.901 151.024 118.319C153.643 119.647 156.326 119.97 158.485 119.97V111.97V103.97C157.825 103.97 157.88 103.856 158.263 104.05C158.821 104.333 159.182 104.807 159.291 105.05C159.32 105.116 159.058 104.546 159.114 102.799C159.168 101.082 159.518 98.5919 160.412 95.1039L152.663 93.1162ZM158.485 111.97V119.97C163.093 119.97 169.443 118.053 175.937 114.795C182.695 111.405 190.396 106.173 197.711 98.6936L191.991 93.1002L186.271 87.5067C180.26 93.654 174.02 97.8567 168.762 100.494C163.241 103.264 159.501 103.97 158.485 103.97V111.97ZM191.991 93.1002L198.441 88.3673L195.245 84.0124L188.795 88.7453L182.346 93.4782L185.541 97.8331L191.991 93.1002ZM188.795 88.7453L183.794 82.5015C181.597 84.2609 179.395 85.5485 177.65 86.3683C176.777 86.7785 176.093 87.0364 175.651 87.1754C175.01 87.3772 175.293 87.2027 176.125 87.2027V95.2027V103.203C177.8 103.203 179.409 102.766 180.451 102.438C181.693 102.048 183.05 101.509 184.453 100.85C187.261 99.5311 190.55 97.5899 193.797 94.9891L188.795 88.7453ZM176.125 95.2027V87.2027C177.748 87.2027 179.755 87.836 181.259 89.5172C182.524 90.9308 182.747 92.334 182.789 92.6554C182.841 93.0458 182.784 93.0966 182.846 92.608C182.903 92.1632 183.034 91.4519 183.304 90.4098L175.56 88.4029L167.816 86.3959C167.11 89.1194 166.575 92.0706 166.926 94.742C167.109 96.1313 167.636 98.2866 169.335 100.185C171.273 102.351 173.843 103.203 176.125 103.203V95.2027ZM175.56 88.4029L183.305 90.4068L190.714 61.7736L182.969 59.7697L175.224 57.7657L167.815 86.3989L175.56 88.4029ZM182.969 59.7697L190.695 61.8449C192.193 56.2666 193.051 50.5084 192.109 45.6737C191.618 43.1533 190.514 40.252 188.111 37.9454C185.559 35.4962 182.35 34.4892 179.214 34.4892V42.4892V50.4892C178.893 50.4892 177.911 50.3335 177.031 49.4884C176.299 48.786 176.309 48.2417 176.404 48.7326C176.497 49.2096 176.572 50.1955 176.403 51.8247C176.238 53.4127 175.866 55.3739 175.242 57.6945L182.969 59.7697ZM179.214 42.4892V34.4892C173.924 34.4892 166.92 36.9015 160.19 40.19C153.117 43.6463 145.183 48.6477 137.797 54.9533L142.991 61.0376L148.185 67.1219C154.498 61.7324 161.293 57.4596 167.215 54.5655C173.481 51.5035 177.739 50.4892 179.214 50.4892V42.4892ZM142.991 61.0376L136.123 65.14L138.935 69.848L145.803 65.7456L152.671 61.6432L149.859 56.9352L142.991 61.0376ZM145.803 65.7456L150.327 72.3434C151.924 71.2485 154.335 69.9869 156.65 68.9792C157.779 68.4877 158.755 68.1135 159.461 67.8794C159.818 67.7611 160.026 67.7053 160.101 67.6873C160.303 67.6393 159.872 67.7697 159.129 67.7697V59.7697V51.7697C157.238 51.7697 155.303 52.4017 154.426 52.6923C153.152 53.1148 151.714 53.6778 150.263 54.3091C147.42 55.5471 144.012 57.2735 141.279 59.1478L145.803 65.7456ZM159.129 59.7697V67.7697C158.423 67.7697 157.322 67.6534 156.107 67.0738C154.818 66.4589 153.801 65.5116 153.111 64.4378C152.473 63.4456 152.233 62.5376 152.136 62.0155C152.038 61.4888 152.041 61.1154 152.044 60.9989C152.049 60.8024 152.065 60.9007 151.942 61.5164C151.83 62.0774 151.651 62.8371 151.383 63.8751L159.129 65.874L166.875 67.873C167.391 65.8738 167.991 63.4411 168.04 61.3786C168.062 60.4388 168.045 58.0808 166.569 55.7843C164.607 52.7335 161.483 51.7697 159.129 51.7697V59.7697ZM159.129 65.874L151.345 64.0266L144.879 91.2688L152.663 93.1162L160.447 94.9637L166.913 67.7215L159.129 65.874ZM199.986 16.4118L202.113 24.1237C203.411 23.7657 205.057 22.985 206.401 21.392C207.765 19.7744 208.279 17.959 208.384 16.4875L200.404 15.9157L192.425 15.3439C192.512 14.1313 192.946 12.5279 194.171 11.0757C195.375 9.64806 196.821 8.98597 197.858 8.69987L199.986 16.4118ZM200.404 15.9157L208.384 16.4875C208.489 15.0158 208.24 13.1457 207.12 11.3501C206.017 9.58183 204.499 8.57446 203.266 8.0352L200.061 15.365L196.856 22.6948C195.87 22.2637 194.533 21.4023 193.545 19.8176C192.539 18.2056 192.338 16.5567 192.425 15.3439L200.404 15.9157ZM200.061 15.365L202.945 7.90312L183.977 0.570292L181.092 8.03215L178.208 15.494L197.176 22.8268L200.061 15.365ZM181.092 8.03215L183.537 0.414988C182.677 0.138802 181.936 0.05516 181.492 0.0233212L180.92 8.00286L180.348 15.9824C180.043 15.9605 179.417 15.8964 178.647 15.6493L181.092 8.03215ZM180.92 8.00286L181.492 0.0233212C181.048 -0.0085035 180.303 -0.0313543 179.411 0.119388L180.746 8.00734L182.08 15.8953C181.283 16.0301 180.654 16.0043 180.348 15.9824L180.92 8.00286ZM180.746 8.00734L178.955 0.210435L159.134 4.7638L160.925 12.5607L162.716 20.3576L182.537 15.8042L180.746 8.00734ZM160.925 12.5607L158.798 4.8488C157.5 5.20675 155.854 5.98745 154.51 7.58046C153.146 9.19803 152.633 11.0135 152.527 12.485L160.507 13.0568L168.486 13.6286C168.399 14.8412 167.965 16.4446 166.74 17.8968C165.536 19.3244 164.09 19.9865 163.053 20.2726L160.925 12.5607ZM160.507 13.0568L152.527 12.485C152.422 13.9565 152.671 15.8266 153.791 17.6222C154.894 19.3905 156.412 20.398 157.645 20.9373L160.85 13.6075L164.056 6.27773C165.041 6.70878 166.378 7.57031 167.367 9.15508C168.372 10.7671 168.573 12.416 168.486 13.6286L160.507 13.0568ZM160.85 13.6075L157.98 21.0749L162.555 22.8336L165.426 15.3663L168.296 7.89889L163.72 6.14014L160.85 13.6075ZM165.426 15.3663L158.119 12.1083L156.877 14.8936L164.184 18.1515L171.49 21.4094L172.732 18.6242L165.426 15.3663ZM164.184 18.1515L162.218 10.3968C158.768 11.2712 155.917 13.7952 154.885 17.5293L162.595 19.6616L170.306 21.794C170.079 22.613 169.586 23.6154 168.669 24.4866C167.77 25.3419 166.813 25.738 166.15 25.9062L164.184 18.1515ZM162.595 19.6616L154.885 17.5293C153.929 20.9839 154.828 24.4603 157.135 27.0258L163.083 21.6757L169.031 16.3257C169.515 16.8636 170.061 17.7061 170.337 18.8451C170.615 19.9927 170.518 21.0277 170.306 21.794L162.595 19.6616ZM163.083 21.6757L155.735 18.5137L152.81 25.3096L160.159 28.4716L167.508 31.6335L170.432 24.8377L163.083 21.6757ZM160.159 28.4716L152.839 25.244C151.725 27.7698 151.966 30.4663 153.086 32.6151L160.18 28.9165L167.274 25.2178C167.694 26.0239 168.048 27.0742 168.107 28.3138C168.166 29.5696 167.908 30.7259 167.479 31.6992L160.159 28.4716ZM160.18 28.9165L152.903 32.2396C154.03 34.7067 156.138 36.2922 158.4 36.9176L160.532 29.207L162.664 21.4964C163.512 21.7309 164.488 22.168 165.411 22.9301C166.347 23.7027 167.021 24.6386 167.457 25.5934L160.18 28.9165ZM160.532 29.207L158.4 36.9176L161.612 37.8061L163.745 30.0955L165.877 22.3849L162.664 21.4964L160.532 29.207ZM163.745 30.0955L161.612 37.8061C163.874 38.4314 166.497 38.1549 168.732 36.6169L164.196 30.0271L159.66 23.4372C160.525 22.8421 161.584 22.3854 162.784 22.2034C163.968 22.024 165.029 22.1505 165.877 22.3849L163.745 30.0955ZM164.196 30.0271L168.381 36.8449C170.446 35.5773 172.039 33.3877 172.381 30.6483L164.443 29.6562L156.504 28.6642C156.636 27.6084 157.009 26.4837 157.705 25.437C158.392 24.4038 159.236 23.6848 160.011 23.2092L164.196 30.0271ZM164.443 29.6562L172.372 30.7193L173.355 23.3866L165.426 22.3236L157.497 21.2605L156.514 28.5932L164.443 29.6562ZM165.426 22.3236L167.78 29.9694C171.077 28.9542 173.634 26.4333 174.59 22.9786L166.879 20.8463L159.168 18.7139C159.38 17.9476 159.829 17.0098 160.657 16.1681C161.479 15.3327 162.38 14.8906 163.072 14.6777L165.426 22.3236ZM166.879 20.8463L174.59 22.9786C175.023 21.412 175.148 19.5656 174.623 17.6357C174.1 15.7119 173.066 14.1964 171.932 13.0786L166.317 18.7764L160.701 24.4743C160.161 23.9424 159.518 23.0648 159.183 21.831C158.846 20.5911 158.955 19.4866 159.168 18.7139L166.879 20.8463ZM166.317 18.7764L173.884 21.3728L173.918 21.2717L166.351 18.6754L158.784 16.079L158.75 16.1801L166.317 18.7764ZM166.351 18.6754L173.919 21.2708C174.012 20.9996 174.071 20.8264 174.126 20.6753C174.178 20.5323 174.203 20.4707 174.211 20.4529C174.216 20.4405 174.198 20.4849 174.155 20.5631C174.11 20.6447 174.051 20.7401 173.98 20.8387L167.491 16.1601L161.002 11.4814C159.666 13.3343 159.072 15.2415 158.784 16.0799L166.351 18.6754ZM167.491 16.1601L164.621 23.6274L166.28 24.2653L169.15 16.7979L172.021 9.33054L170.361 8.69273L167.491 16.1601ZM169.15 16.7979L161.245 15.5724L160.728 18.9065L168.633 20.132L176.539 21.3575L177.056 18.0234L169.15 16.7979ZM168.633 20.132L160.702 19.0876C160.715 18.9923 160.738 18.8284 160.778 18.6237C160.81 18.4605 160.894 18.0522 161.07 17.5478C161.159 17.2951 161.327 16.8525 161.611 16.3358C161.757 16.0691 161.97 15.7176 162.265 15.3319C162.555 14.9536 162.994 14.4491 163.615 13.9511C164.243 13.4479 165.143 12.8829 166.324 12.5295C167.551 12.1623 168.881 12.0861 170.197 12.3514C171.474 12.6087 172.485 13.1346 173.216 13.6486C173.933 14.1523 174.441 14.6856 174.776 15.0899C175.415 15.8612 175.761 16.5781 175.916 16.9252C176.095 17.3247 176.206 17.6632 176.271 17.8776C176.399 18.3013 176.463 18.6454 176.493 18.8202C176.556 19.1911 176.581 19.4954 176.592 19.6935C176.603 19.8909 176.612 20.1979 176.589 20.5763C176.578 20.7539 176.552 21.1082 176.469 21.55C176.428 21.7734 176.351 22.1298 176.213 22.5559C176.093 22.9241 175.814 23.6994 175.233 24.5578C174.696 25.3504 173.325 27.0574 170.772 27.774C169.457 28.1431 168.125 28.1551 166.899 27.8864C165.721 27.6283 164.803 27.1498 164.161 26.72C163.524 26.293 163.058 25.8478 162.746 25.5113C162.428 25.1681 162.19 24.8508 162.023 24.6081C161.699 24.1376 161.493 23.7281 161.381 23.4916C161.159 23.0201 161.035 22.6327 160.986 22.4759C160.925 22.2803 160.885 22.1227 160.862 22.0307L168.633 20.132L176.405 18.2333C176.376 18.115 176.33 17.9361 176.264 17.7235C176.21 17.5498 176.08 17.1498 175.854 16.6693C175.74 16.4283 175.532 16.0152 175.206 15.5421C175.039 15.298 174.8 14.9796 174.481 14.6354C174.168 14.298 173.701 13.8521 173.063 13.4246C172.42 12.9942 171.502 12.5153 170.323 12.2571C169.096 11.9882 167.763 12.0002 166.448 12.3695C163.893 13.0865 162.521 14.7945 161.983 15.5889C161.401 16.449 161.121 17.2266 161 17.5977C160.86 18.0266 160.783 18.3864 160.741 18.6136C160.657 19.0632 160.629 19.427 160.618 19.6154C160.594 20.0154 160.604 20.3488 160.616 20.5727C160.628 20.7972 160.655 21.1279 160.722 21.5202C160.754 21.7056 160.821 22.0591 160.95 22.4905C161.016 22.7087 161.129 23.0504 161.309 23.4528C161.465 23.8026 161.813 24.5218 162.453 25.2947C162.788 25.6997 163.297 26.2337 164.015 26.7379C164.746 27.2524 165.759 27.7786 167.036 28.036C168.353 28.3014 169.684 28.2252 170.911 27.8578C172.093 27.5042 172.994 26.9388 173.623 26.435C174.244 25.9364 174.684 25.4311 174.974 25.0518C175.27 24.6651 175.484 24.3125 175.631 24.0443C175.917 23.5248 176.087 23.0785 176.176 22.8212C176.356 22.3076 176.443 21.8863 176.478 21.7059C176.522 21.4839 176.549 21.2983 176.565 21.1764L168.633 20.132ZM168.633 20.132L161.961 15.7181C159.65 19.2126 158.367 23.3095 158.367 27.2323H166.367H174.367C174.367 26.6771 174.596 25.6191 175.306 24.5459L168.633 20.132ZM166.367 27.2323L158.37 27.0076C158.231 31.9574 159.64 36.9251 163.323 40.6603C166.992 44.3811 171.932 45.8788 176.881 45.8788V37.8788V29.8788C175.974 29.8788 175.407 29.7436 175.099 29.6315C174.811 29.5264 174.725 29.4349 174.716 29.4262C174.709 29.4188 174.634 29.3484 174.548 29.0996C174.456 28.8303 174.34 28.3092 174.364 27.457L166.367 27.2323ZM176.881 37.8788V45.8788C189.153 45.8788 199.149 36.0516 199.149 24.4396H191.149H183.149C183.149 26.791 180.747 29.8788 176.881 29.8788V37.8788ZM191.149 24.4396H199.149C199.149 22.7006 198.935 20.9457 198.475 19.2311L190.748 21.3016L183.02 23.372C183.096 23.6557 183.149 24.013 183.149 24.4396H191.149ZM190.748 21.3016L198.672 22.3981C198.668 22.431 198.66 22.4892 198.648 22.5625C198.639 22.617 198.614 22.7727 198.571 22.9712C198.551 23.0652 198.506 23.2639 198.434 23.5119C198.398 23.6375 198.336 23.8383 198.246 24.0804C198.199 24.2047 198.136 24.3656 198.053 24.5503C197.973 24.7297 197.853 24.9797 197.688 25.2674C197.531 25.5401 197.266 25.9646 196.872 26.4336C196.668 26.6751 196.399 26.966 196.057 27.269C195.717 27.5704 195.262 27.9212 194.687 28.2466C194.106 28.5746 193.37 28.8943 192.489 29.0903C191.592 29.2898 190.617 29.3441 189.614 29.1999C188.614 29.0563 187.726 28.7361 186.972 28.3319C186.231 27.9348 185.652 27.4745 185.218 27.0582C184.785 26.6435 184.459 26.2385 184.222 25.9033C183.983 25.5659 183.803 25.2552 183.669 25.0002C183.408 24.5046 183.25 24.0748 183.157 23.796C183.06 23.5031 182.996 23.2526 182.955 23.0715C182.912 22.8854 182.882 22.7245 182.861 22.5997C182.821 22.3563 182.799 22.1565 182.787 22.0298C182.774 21.8956 182.767 21.7825 182.763 21.7002C182.755 21.5397 182.753 21.4102 182.752 21.334C182.751 21.181 182.755 21.0605 182.757 21.002C182.762 20.8756 182.768 20.7734 182.773 20.7075C182.778 20.642 182.787 20.5388 182.801 20.4114C182.808 20.3527 182.823 20.2295 182.847 20.0737C182.859 19.9964 182.881 19.8625 182.916 19.697C182.933 19.6122 182.959 19.4942 182.995 19.3543C183.028 19.2233 183.085 19.011 183.172 18.7541C183.217 18.6222 183.279 18.4498 183.362 18.2511C183.442 18.0587 183.564 17.7864 183.736 17.4721C183.899 17.1758 184.182 16.7034 184.617 16.1845C184.841 15.9167 185.142 15.5934 185.528 15.2607C185.914 14.9288 186.429 14.5492 187.082 14.2122C187.745 13.8707 188.562 13.5668 189.517 13.4181C190.486 13.2671 191.485 13.2941 192.462 13.5084C194.413 13.9361 195.728 14.9746 196.46 15.7213C196.837 16.1051 197.122 16.4732 197.331 16.7757C197.541 17.0806 197.703 17.3601 197.824 17.5902C198.061 18.0382 198.211 18.426 198.3 18.682C198.394 18.9501 198.458 19.18 198.501 19.3482C198.545 19.5207 198.577 19.6703 198.6 19.7874C198.644 20.0155 198.671 20.2035 198.686 20.324C198.716 20.561 198.728 20.7494 198.734 20.8415C198.745 21.0339 198.747 21.1837 198.748 21.2379C198.748 21.3096 198.748 21.3663 198.747 21.3986L190.748 21.3016L182.748 21.2045C182.748 21.2459 182.747 21.31 182.748 21.3876C182.749 21.4477 182.751 21.6019 182.762 21.7975C182.768 21.8912 182.781 22.0808 182.811 22.3188C182.826 22.4398 182.852 22.6282 182.897 22.8567C182.92 22.9739 182.952 23.1237 182.996 23.2963C183.039 23.4647 183.103 23.6947 183.197 23.9629C183.286 24.219 183.436 24.6069 183.672 25.0549C183.794 25.2851 183.956 25.5646 184.166 25.8696C184.375 26.1721 184.66 26.5402 185.037 26.924C185.769 27.6708 187.084 28.7093 189.035 29.137C190.012 29.3513 191.011 29.3783 191.98 29.2274C192.935 29.0786 193.753 28.7747 194.415 28.4332C195.068 28.0962 195.584 27.7166 195.969 27.3847C196.355 27.052 196.656 26.7286 196.881 26.4608C197.315 25.9418 197.599 25.4693 197.761 25.1729C197.934 24.8586 198.056 24.5862 198.136 24.3937C198.218 24.1949 198.281 24.0224 198.326 23.8903C198.413 23.6332 198.47 23.4206 198.503 23.2892C198.539 23.1489 198.565 23.0305 198.583 22.9452C198.617 22.7788 198.64 22.6438 198.652 22.5652C198.677 22.4068 198.692 22.2804 198.699 22.2182C198.714 22.0835 198.724 21.9714 198.729 21.8968C198.735 21.8219 198.742 21.7108 198.747 21.577C198.749 21.5148 198.753 21.3911 198.752 21.2354C198.751 21.1579 198.75 21.0273 198.741 20.8657C198.737 20.7829 198.73 20.6694 198.717 20.5348C198.705 20.4078 198.683 20.2076 198.643 19.9639C198.622 19.8389 198.592 19.6779 198.549 19.4917C198.507 19.3105 198.443 19.0599 198.346 18.7668C198.254 18.488 198.095 18.0582 197.835 17.5624C197.701 17.3074 197.52 16.9967 197.281 16.6592C197.044 16.3241 196.719 15.919 196.286 15.5043C195.851 15.088 195.272 14.6277 194.532 14.2306C193.778 13.8264 192.889 13.5061 191.889 13.3625C190.886 13.2183 189.911 13.2726 189.014 13.4721C188.133 13.6681 187.397 13.9879 186.817 14.3159C186.241 14.6412 185.786 14.9921 185.446 15.2936C185.104 15.5965 184.835 15.8874 184.632 16.129C184.237 16.5981 183.972 17.0227 183.815 17.2954C183.65 17.5832 183.53 17.8333 183.45 18.0128C183.367 18.1977 183.303 18.3587 183.257 18.4831C183.166 18.7255 183.105 18.9267 183.068 19.0528C182.996 19.3017 182.951 19.5016 182.931 19.5971C182.887 19.7986 182.861 19.9586 182.851 20.0188C182.839 20.0979 182.829 20.1632 182.823 20.205L190.748 21.3016ZM190.748 21.3016L198.599 22.8366L199.166 19.9389L191.314 18.4039L183.463 16.8688L182.897 19.7665L190.748 21.3016ZM191.314 18.4039L193.106 26.2008L201.777 24.2087L199.986 16.4118L198.195 8.61487L189.523 10.607L191.314 18.4039ZM41.92 22V30H61.12V22V14H41.92V22ZM61.12 22H53.12V89.072H61.12H69.12V22H61.12ZM61.12 89.072H53.12C53.12 94.1732 51.5595 97.5118 48.9052 99.9658L54.336 105.84L59.7668 111.714C66.1578 105.806 69.12 97.9654 69.12 89.072H61.12ZM54.336 105.84L48.9098 99.9616C46.5026 102.184 42.1794 103.984 34.496 103.984V111.984V119.984C44.3913 119.984 53.2948 117.688 59.7622 111.718L54.336 105.84ZM34.496 111.984V103.984C26.9363 103.984 22.5551 102.201 20.0262 99.9104L14.656 105.84L9.28577 111.77C15.8022 117.671 24.6477 119.984 34.496 119.984V111.984ZM14.656 105.84L20.0822 99.9616C17.5716 97.644 16 94.3433 16 89.072H8H0C0 97.966 2.86577 105.844 9.22976 111.718L14.656 105.84ZM8 89.072H16V22H8H0V89.072H8ZM8 22V30H27.2V22V14H8V22ZM27.2 22H19.2V88.048H27.2H35.2V22H27.2ZM27.2 88.048H19.2C19.2 91.7067 20.2911 95.8293 23.7485 98.8621C27.0057 101.719 31.0697 102.448 34.496 102.448V94.448V86.448C34.1773 86.448 33.9425 86.4304 33.7807 86.4101C33.6189 86.3898 33.5478 86.3691 33.5492 86.3695C33.5625 86.3734 33.8905 86.4752 34.2995 86.8339C34.7311 87.2125 35.0019 87.658 35.1343 88.0063C35.2485 88.3069 35.2 88.3739 35.2 88.048H27.2ZM34.496 94.448V102.448C37.937 102.448 42.011 101.732 45.2875 98.9073C48.7912 95.8869 49.92 91.7498 49.92 88.048H41.92H33.92C33.92 88.3597 33.8729 88.277 33.9944 87.9628C34.1345 87.6005 34.4134 87.1569 34.8405 86.7887C35.242 86.4426 35.552 86.3542 35.5346 86.3591C35.4937 86.3709 35.1846 86.448 34.496 86.448V94.448ZM41.92 88.048H49.92V22H41.92H33.92V88.048H41.92ZM114.047 22V30H132.991V22V14H114.047V22ZM132.991 22H124.991V110.704H132.991H140.991V22H132.991ZM132.991 110.704V102.704H114.559V110.704V118.704H132.991V110.704ZM114.559 110.704L122.008 107.787C109.314 75.3643 102.184 56.3115 100.344 50.0733L92.671 52.336L84.9976 54.5987C87.0835 61.6725 94.5457 81.5317 107.11 113.621L114.559 110.704ZM92.671 52.336L84.9395 54.3912C86.4368 60.0239 87.359 70.6932 87.359 87.152H95.359H103.359C103.359 70.6721 102.489 58.1308 100.403 50.2808L92.671 52.336ZM95.359 87.152H87.359V110.704H95.359H103.359V87.152H95.359ZM95.359 110.704V102.704H76.415V110.704V118.704H95.359V110.704ZM76.415 110.704H84.415V22H76.415H68.415V110.704H76.415ZM76.415 22V30H95.359V22V14H76.415V22ZM95.359 22L87.9114 24.9212L99.5594 54.6172L107.007 51.696L114.455 48.7748L102.807 19.0788L95.359 22ZM107.007 51.696L99.5519 54.598C104.477 67.2502 107.664 76.536 109.248 82.6352L116.991 80.624L124.734 78.6128C122.905 71.5706 119.436 61.5711 114.462 48.794L107.007 51.696ZM116.991 80.624L124.775 78.7783C123.031 71.421 122.047 60.0482 122.047 44.272H114.047H106.047C106.047 60.4105 107.026 73.2723 109.207 82.4697L116.991 80.624ZM114.047 44.272H122.047V22H114.047H106.047V44.272H114.047Z" fill="white" mask="url(#path-1-outside-1_7_3)"/>
</svg>
