<svg width="677" height="136" viewBox="0 0 677 136" fill="none" xmlns="http://www.w3.org/2000/svg">
<mask id="path-1-outside-1_6_41" maskUnits="userSpaceOnUse" x="0.120001" y="0" width="677" height="136" fill="black">
<rect fill="white" x="0.120001" width="677" height="136"/>
<path d="M42.04 37.296H61.24V104.368C61.24 111.365 58.9787 116.955 54.456 121.136C50.0187 125.232 43.4053 127.28 34.616 127.28C25.912 127.28 19.2987 125.232 14.776 121.136C10.3387 117.04 8.12 111.451 8.12 104.368V37.296H27.32V103.344C27.32 107.611 29.752 109.744 34.616 109.744C39.5653 109.744 42.04 107.611 42.04 103.344V37.296Z"/>
<path d="M114.167 37.296H133.111V126H114.679C102.05 93.744 94.7537 74.288 92.791 67.632C94.583 74.3733 95.479 85.9787 95.479 102.448V126H76.535V37.296H95.479L107.127 66.992C112.076 79.7067 115.404 89.3493 117.111 95.92C115.148 87.6427 114.167 75.5253 114.167 59.568V37.296Z"/>
<path d="M258.022 37.296H277.99L261.094 126H234.342L217.19 37.296H236.774C241.723 65.5413 244.582 82.608 245.35 88.496C246.118 94.384 246.971 101.339 247.91 109.36C249.531 94.0853 250.939 82.6507 252.134 75.056L258.022 37.296Z"/>
<path d="M370.31 94V126H351.11V37.296H380.038C387.035 37.296 392.497 38.96 396.422 42.288C400.347 45.616 402.31 50.48 402.31 56.88V73.264C402.31 83.504 398.811 89.904 391.814 92.464L405.766 126H384.646L372.742 94H370.31ZM370.31 53.68V78.768H377.862C379.825 78.768 381.19 78.3413 381.958 77.488C382.726 76.6347 383.11 75.1413 383.11 73.008V58.544C383.11 56.6667 382.683 55.3867 381.83 54.704C380.977 54.0213 379.654 53.68 377.862 53.68H370.31Z"/>
<path d="M416.06 58.032C416.06 51.2053 418.364 45.9573 422.972 42.288C427.58 38.5333 434.193 36.656 442.812 36.656C451.516 36.656 462.001 40.552 466.268 42.344V60.776C461.063 58.5573 451.132 54.448 444.476 54.448C441.063 54.448 438.759 55.0027 437.564 56.112C436.369 57.136 435.772 58.6293 435.772 60.592V62.512C435.772 64.9013 436.156 66.6933 436.924 67.888C437.777 68.9973 439.569 70.2773 442.3 71.728L456.892 79.92C463.889 83.76 467.388 89.52 467.388 97.2V105.136C467.388 112.048 464.828 117.381 459.708 121.136C454.588 124.805 447.377 126.64 438.076 126.64C428.86 126.64 421.905 125.659 417.212 123.696L412 105.136C417.803 107.611 429.585 108.848 436.924 108.848C444.263 108.848 447.932 106.757 447.932 102.576V100.656C447.932 98.6933 447.505 97.2427 446.652 96.304C445.884 95.28 444.391 94.1707 442.172 92.976L428.476 85.552C420.199 80.944 416.06 74.4587 416.06 66.096V58.032Z"/>
<path d="M561.385 94V126H542.185V37.296H571.113C578.11 37.296 583.572 38.96 587.497 42.288C591.422 45.616 593.385 50.48 593.385 56.88V73.264C593.385 83.504 589.886 89.904 582.889 92.464L596.841 126H575.721L563.817 94H561.385ZM561.385 53.68V78.768H568.937C570.9 78.768 572.265 78.3413 573.033 77.488C573.801 76.6347 574.185 75.1413 574.185 73.008V58.544C574.185 56.6667 573.758 55.3867 572.905 54.704C572.052 54.0213 570.729 53.68 568.937 53.68H561.385Z"/>
<path d="M648.223 126L644.511 105.52H626.975L623.519 126H605.215L622.623 37.296H649.375L666.527 126H648.223ZM629.663 89.264H641.695L635.551 54.96L629.663 89.264Z"/>
<path fill-rule="evenodd" clip-rule="evenodd" d="M161.672 107.116C157.731 122.481 161.859 125.97 167.494 125.97C173.118 125.97 187.674 120.727 201 107.1L197.804 102.745C192.361 107.106 186.822 109.203 185.134 109.203C183.818 109.203 183.259 107.459 184.569 102.403L191.978 73.7697C194.79 63.2997 193.852 56.4892 188.223 56.4892C181.459 56.4892 165.699 63.3425 152 75.0376L154.812 79.7456C159.142 76.7764 166.45 73.7697 168.138 73.7697C169.448 73.7697 169.262 75.5191 168.138 79.874L161.672 107.116Z"/>
<path d="M208.995 16.4118C209.255 16.3399 209.395 16.1746 209.413 15.9157C209.432 15.6568 209.317 15.4732 209.07 15.365L190.101 8.03215C190.056 8.01759 189.998 8.00783 189.929 8.00286C189.86 7.9979 189.802 7.99939 189.755 8.00734L169.934 12.5607C169.674 12.6325 169.534 12.7979 169.516 13.0568C169.497 13.3157 169.612 13.4993 169.859 13.6075L174.435 15.3663L173.193 18.1515C172.353 18.3643 171.824 18.8677 171.604 19.6616C171.397 20.4121 171.559 21.0835 172.092 21.6757L169.168 28.4716C169.104 28.6177 169.111 28.766 169.189 28.9165C169.256 29.0639 169.374 29.1607 169.541 29.207L172.754 30.0955C172.921 30.1417 173.072 30.1189 173.205 30.0271C173.35 29.9383 173.432 29.8147 173.452 29.6562L174.435 22.3236C175.196 22.0892 175.68 21.5968 175.888 20.8463C176.108 20.0523 175.92 19.3624 175.326 18.7764L175.36 18.6754C175.713 17.6474 175.972 16.8928 176.5 16.1601L178.159 16.7979L177.608 24.4977C177.58 24.7106 177.591 24.922 177.643 25.132C176.132 27.4158 175.376 29.9933 175.376 32.2323C175.19 38.8663 179.131 42.8788 185.89 42.8788C193.959 42.8788 200.158 36.4213 200.158 29.4396C200.158 28.3568 200.025 27.3007 199.757 26.3016C199.767 26.2305 199.772 26.1587 199.773 26.086L200.323 18.4039L208.995 16.4118Z"/>
<path d="M482.072 37.296H530V55.936H501.272V71.752H526.544V91.392H501.272V107.36H530V126H482.072V37.296Z"/>
<path d="M291.072 37.296H339V55.936H310.272V71.752H335.544V91.392H310.272V107.36H339V126H291.072V37.296Z"/>
</mask>
<path d="M42.04 37.296H61.24V104.368C61.24 111.365 58.9787 116.955 54.456 121.136C50.0187 125.232 43.4053 127.28 34.616 127.28C25.912 127.28 19.2987 125.232 14.776 121.136C10.3387 117.04 8.12 111.451 8.12 104.368V37.296H27.32V103.344C27.32 107.611 29.752 109.744 34.616 109.744C39.5653 109.744 42.04 107.611 42.04 103.344V37.296Z" fill="#6ED3F0"/>
<path d="M114.167 37.296H133.111V126H114.679C102.05 93.744 94.7537 74.288 92.791 67.632C94.583 74.3733 95.479 85.9787 95.479 102.448V126H76.535V37.296H95.479L107.127 66.992C112.076 79.7067 115.404 89.3493 117.111 95.92C115.148 87.6427 114.167 75.5253 114.167 59.568V37.296Z" fill="#6ED3F0"/>
<path d="M258.022 37.296H277.99L261.094 126H234.342L217.19 37.296H236.774C241.723 65.5413 244.582 82.608 245.35 88.496C246.118 94.384 246.971 101.339 247.91 109.36C249.531 94.0853 250.939 82.6507 252.134 75.056L258.022 37.296Z" fill="#6ED3F0"/>
<path d="M370.31 94V126H351.11V37.296H380.038C387.035 37.296 392.497 38.96 396.422 42.288C400.347 45.616 402.31 50.48 402.31 56.88V73.264C402.31 83.504 398.811 89.904 391.814 92.464L405.766 126H384.646L372.742 94H370.31ZM370.31 53.68V78.768H377.862C379.825 78.768 381.19 78.3413 381.958 77.488C382.726 76.6347 383.11 75.1413 383.11 73.008V58.544C383.11 56.6667 382.683 55.3867 381.83 54.704C380.977 54.0213 379.654 53.68 377.862 53.68H370.31Z" fill="#6ED3F0"/>
<path d="M416.06 58.032C416.06 51.2053 418.364 45.9573 422.972 42.288C427.58 38.5333 434.193 36.656 442.812 36.656C451.516 36.656 462.001 40.552 466.268 42.344V60.776C461.063 58.5573 451.132 54.448 444.476 54.448C441.063 54.448 438.759 55.0027 437.564 56.112C436.369 57.136 435.772 58.6293 435.772 60.592V62.512C435.772 64.9013 436.156 66.6933 436.924 67.888C437.777 68.9973 439.569 70.2773 442.3 71.728L456.892 79.92C463.889 83.76 467.388 89.52 467.388 97.2V105.136C467.388 112.048 464.828 117.381 459.708 121.136C454.588 124.805 447.377 126.64 438.076 126.64C428.86 126.64 421.905 125.659 417.212 123.696L412 105.136C417.803 107.611 429.585 108.848 436.924 108.848C444.263 108.848 447.932 106.757 447.932 102.576V100.656C447.932 98.6933 447.505 97.2427 446.652 96.304C445.884 95.28 444.391 94.1707 442.172 92.976L428.476 85.552C420.199 80.944 416.06 74.4587 416.06 66.096V58.032Z" fill="#6ED3F0"/>
<path d="M561.385 94V126H542.185V37.296H571.113C578.11 37.296 583.572 38.96 587.497 42.288C591.422 45.616 593.385 50.48 593.385 56.88V73.264C593.385 83.504 589.886 89.904 582.889 92.464L596.841 126H575.721L563.817 94H561.385ZM561.385 53.68V78.768H568.937C570.9 78.768 572.265 78.3413 573.033 77.488C573.801 76.6347 574.185 75.1413 574.185 73.008V58.544C574.185 56.6667 573.758 55.3867 572.905 54.704C572.052 54.0213 570.729 53.68 568.937 53.68H561.385Z" fill="#6ED3F0"/>
<path d="M648.223 126L644.511 105.52H626.975L623.519 126H605.215L622.623 37.296H649.375L666.527 126H648.223ZM629.663 89.264H641.695L635.551 54.96L629.663 89.264Z" fill="#6ED3F0"/>
<path fill-rule="evenodd" clip-rule="evenodd" d="M161.672 107.116C157.731 122.481 161.859 125.97 167.494 125.97C173.118 125.97 187.674 120.727 201 107.1L197.804 102.745C192.361 107.106 186.822 109.203 185.134 109.203C183.818 109.203 183.259 107.459 184.569 102.403L191.978 73.7697C194.79 63.2997 193.852 56.4892 188.223 56.4892C181.459 56.4892 165.699 63.3425 152 75.0376L154.812 79.7456C159.142 76.7764 166.45 73.7697 168.138 73.7697C169.448 73.7697 169.262 75.5191 168.138 79.874L161.672 107.116Z" fill="#6ED3EF"/>
<path d="M208.995 16.4118C209.255 16.3399 209.395 16.1746 209.413 15.9157C209.432 15.6568 209.317 15.4732 209.07 15.365L190.101 8.03215C190.056 8.01759 189.998 8.00783 189.929 8.00286C189.86 7.9979 189.802 7.99939 189.755 8.00734L169.934 12.5607C169.674 12.6325 169.534 12.7979 169.516 13.0568C169.497 13.3157 169.612 13.4993 169.859 13.6075L174.435 15.3663L173.193 18.1515C172.353 18.3643 171.824 18.8677 171.604 19.6616C171.397 20.4121 171.559 21.0835 172.092 21.6757L169.168 28.4716C169.104 28.6177 169.111 28.766 169.189 28.9165C169.256 29.0639 169.374 29.1607 169.541 29.207L172.754 30.0955C172.921 30.1417 173.072 30.1189 173.205 30.0271C173.35 29.9383 173.432 29.8147 173.452 29.6562L174.435 22.3236C175.196 22.0892 175.68 21.5968 175.888 20.8463C176.108 20.0523 175.92 19.3624 175.326 18.7764L175.36 18.6754C175.713 17.6474 175.972 16.8928 176.5 16.1601L178.159 16.7979L177.608 24.4977C177.58 24.7106 177.591 24.922 177.643 25.132C176.132 27.4158 175.376 29.9933 175.376 32.2323C175.19 38.8663 179.131 42.8788 185.89 42.8788C193.959 42.8788 200.158 36.4213 200.158 29.4396C200.158 28.3568 200.025 27.3007 199.757 26.3016C199.767 26.2305 199.772 26.1587 199.773 26.086L200.323 18.4039L208.995 16.4118Z" fill="#6ED3EF"/>
<path d="M482.072 37.296H530V55.936H501.272V71.752H526.544V91.392H501.272V107.36H530V126H482.072V37.296Z" fill="#6ED3F0"/>
<path d="M291.072 37.296H339V55.936H310.272V71.752H335.544V91.392H310.272V107.36H339V126H291.072V37.296Z" fill="#6ED3F0"/>
<path d="M42.04 37.296H61.24V104.368C61.24 111.365 58.9787 116.955 54.456 121.136C50.0187 125.232 43.4053 127.28 34.616 127.28C25.912 127.28 19.2987 125.232 14.776 121.136C10.3387 117.04 8.12 111.451 8.12 104.368V37.296H27.32V103.344C27.32 107.611 29.752 109.744 34.616 109.744C39.5653 109.744 42.04 107.611 42.04 103.344V37.296Z" stroke="white" stroke-width="16" mask="url(#path-1-outside-1_6_41)"/>
<path d="M114.167 37.296H133.111V126H114.679C102.05 93.744 94.7537 74.288 92.791 67.632C94.583 74.3733 95.479 85.9787 95.479 102.448V126H76.535V37.296H95.479L107.127 66.992C112.076 79.7067 115.404 89.3493 117.111 95.92C115.148 87.6427 114.167 75.5253 114.167 59.568V37.296Z" stroke="white" stroke-width="16" mask="url(#path-1-outside-1_6_41)"/>
<path d="M258.022 37.296H277.99L261.094 126H234.342L217.19 37.296H236.774C241.723 65.5413 244.582 82.608 245.35 88.496C246.118 94.384 246.971 101.339 247.91 109.36C249.531 94.0853 250.939 82.6507 252.134 75.056L258.022 37.296Z" stroke="white" stroke-width="16" mask="url(#path-1-outside-1_6_41)"/>
<path d="M370.31 94V126H351.11V37.296H380.038C387.035 37.296 392.497 38.96 396.422 42.288C400.347 45.616 402.31 50.48 402.31 56.88V73.264C402.31 83.504 398.811 89.904 391.814 92.464L405.766 126H384.646L372.742 94H370.31ZM370.31 53.68V78.768H377.862C379.825 78.768 381.19 78.3413 381.958 77.488C382.726 76.6347 383.11 75.1413 383.11 73.008V58.544C383.11 56.6667 382.683 55.3867 381.83 54.704C380.977 54.0213 379.654 53.68 377.862 53.68H370.31Z" stroke="white" stroke-width="16" mask="url(#path-1-outside-1_6_41)"/>
<path d="M416.06 58.032C416.06 51.2053 418.364 45.9573 422.972 42.288C427.58 38.5333 434.193 36.656 442.812 36.656C451.516 36.656 462.001 40.552 466.268 42.344V60.776C461.063 58.5573 451.132 54.448 444.476 54.448C441.063 54.448 438.759 55.0027 437.564 56.112C436.369 57.136 435.772 58.6293 435.772 60.592V62.512C435.772 64.9013 436.156 66.6933 436.924 67.888C437.777 68.9973 439.569 70.2773 442.3 71.728L456.892 79.92C463.889 83.76 467.388 89.52 467.388 97.2V105.136C467.388 112.048 464.828 117.381 459.708 121.136C454.588 124.805 447.377 126.64 438.076 126.64C428.86 126.64 421.905 125.659 417.212 123.696L412 105.136C417.803 107.611 429.585 108.848 436.924 108.848C444.263 108.848 447.932 106.757 447.932 102.576V100.656C447.932 98.6933 447.505 97.2427 446.652 96.304C445.884 95.28 444.391 94.1707 442.172 92.976L428.476 85.552C420.199 80.944 416.06 74.4587 416.06 66.096V58.032Z" stroke="white" stroke-width="16" mask="url(#path-1-outside-1_6_41)"/>
<path d="M561.385 94V126H542.185V37.296H571.113C578.11 37.296 583.572 38.96 587.497 42.288C591.422 45.616 593.385 50.48 593.385 56.88V73.264C593.385 83.504 589.886 89.904 582.889 92.464L596.841 126H575.721L563.817 94H561.385ZM561.385 53.68V78.768H568.937C570.9 78.768 572.265 78.3413 573.033 77.488C573.801 76.6347 574.185 75.1413 574.185 73.008V58.544C574.185 56.6667 573.758 55.3867 572.905 54.704C572.052 54.0213 570.729 53.68 568.937 53.68H561.385Z" stroke="white" stroke-width="16" mask="url(#path-1-outside-1_6_41)"/>
<path d="M648.223 126L644.511 105.52H626.975L623.519 126H605.215L622.623 37.296H649.375L666.527 126H648.223ZM629.663 89.264H641.695L635.551 54.96L629.663 89.264Z" stroke="white" stroke-width="16" mask="url(#path-1-outside-1_6_41)"/>
<path fill-rule="evenodd" clip-rule="evenodd" d="M161.672 107.116C157.731 122.481 161.859 125.97 167.494 125.97C173.118 125.97 187.674 120.727 201 107.1L197.804 102.745C192.361 107.106 186.822 109.203 185.134 109.203C183.818 109.203 183.259 107.459 184.569 102.403L191.978 73.7697C194.79 63.2997 193.852 56.4892 188.223 56.4892C181.459 56.4892 165.699 63.3425 152 75.0376L154.812 79.7456C159.142 76.7764 166.45 73.7697 168.138 73.7697C169.448 73.7697 169.262 75.5191 168.138 79.874L161.672 107.116Z" stroke="white" stroke-width="16" mask="url(#path-1-outside-1_6_41)"/>
<path d="M208.995 16.4118C209.255 16.3399 209.395 16.1746 209.413 15.9157C209.432 15.6568 209.317 15.4732 209.07 15.365L190.101 8.03215C190.056 8.01759 189.998 8.00783 189.929 8.00286C189.86 7.9979 189.802 7.99939 189.755 8.00734L169.934 12.5607C169.674 12.6325 169.534 12.7979 169.516 13.0568C169.497 13.3157 169.612 13.4993 169.859 13.6075L174.435 15.3663L173.193 18.1515C172.353 18.3643 171.824 18.8677 171.604 19.6616C171.397 20.4121 171.559 21.0835 172.092 21.6757L169.168 28.4716C169.104 28.6177 169.111 28.766 169.189 28.9165C169.256 29.0639 169.374 29.1607 169.541 29.207L172.754 30.0955C172.921 30.1417 173.072 30.1189 173.205 30.0271C173.35 29.9383 173.432 29.8147 173.452 29.6562L174.435 22.3236C175.196 22.0892 175.68 21.5968 175.888 20.8463C176.108 20.0523 175.92 19.3624 175.326 18.7764L175.36 18.6754C175.713 17.6474 175.972 16.8928 176.5 16.1601L178.159 16.7979L177.608 24.4977C177.58 24.7106 177.591 24.922 177.643 25.132C176.132 27.4158 175.376 29.9933 175.376 32.2323C175.19 38.8663 179.131 42.8788 185.89 42.8788C193.959 42.8788 200.158 36.4213 200.158 29.4396C200.158 28.3568 200.025 27.3007 199.757 26.3016C199.767 26.2305 199.772 26.1587 199.773 26.086L200.323 18.4039L208.995 16.4118Z" stroke="white" stroke-width="16" mask="url(#path-1-outside-1_6_41)"/>
<path d="M482.072 37.296H530V55.936H501.272V71.752H526.544V91.392H501.272V107.36H530V126H482.072V37.296Z" stroke="white" stroke-width="16" mask="url(#path-1-outside-1_6_41)"/>
<path d="M291.072 37.296H339V55.936H310.272V71.752H335.544V91.392H310.272V107.36H339V126H291.072V37.296Z" stroke="white" stroke-width="16" mask="url(#path-1-outside-1_6_41)"/>
</svg>
