<svg width="77" height="120" viewBox="0 0 77 120" fill="none" xmlns="http://www.w3.org/2000/svg">
<path fill-rule="evenodd" clip-rule="evenodd" d="M20.5522 93.1162C16.6109 108.481 20.7386 111.97 26.3736 111.97C31.9979 111.97 46.5541 106.727 59.88 93.1002L56.6843 88.7453C51.2411 93.1055 45.702 95.2027 44.0136 95.2027C42.698 95.2027 42.1388 93.4586 43.449 88.4029L50.8576 59.7697C53.6698 49.2997 52.7324 42.4892 47.1027 42.4892C40.3386 42.4892 24.5787 49.3425 10.88 61.0376L13.6922 65.7456C18.0223 62.7764 25.3297 59.7697 27.018 59.7697C28.3283 59.7697 28.1418 61.5191 27.018 65.874L20.5522 93.1162Z" fill="#6ED3EF"/>
<path d="M67.875 16.4118C68.1354 16.3399 68.2749 16.1746 68.2934 15.9157C68.312 15.6568 68.1975 15.4732 67.95 15.365L48.9811 8.03215C48.9357 8.01759 48.8784 8.00783 48.8091 8.00286C48.7399 7.9979 48.6817 7.99939 48.6348 8.00734L28.8142 12.5607C28.5538 12.6325 28.4143 12.7979 28.3957 13.0568C28.3772 13.3157 28.4917 13.4993 28.7392 13.6075L33.3148 15.3663L32.0728 18.1515C31.2334 18.3643 30.704 18.8677 30.4844 19.6616C30.2768 20.4121 30.4394 21.0835 30.9721 21.6757L28.048 28.4716C27.9836 28.6177 27.9906 28.766 28.0691 28.9165C28.1364 29.0639 28.2537 29.1607 28.421 29.207L31.6338 30.0955C31.8011 30.1417 31.9515 30.1189 32.085 30.0271C32.2296 29.9383 32.3119 29.8147 32.3317 29.6562L33.3148 22.3236C34.0761 22.0892 34.5605 21.5968 34.768 20.8463C34.9876 20.0523 34.8001 19.3624 34.2056 18.7764L34.2403 18.6754C34.5929 17.6474 34.8517 16.8928 35.38 16.1601L37.0393 16.7979L36.5225 20.132C36.4712 19.922 36.4945 20.3449 36.5225 20.132C35.0116 22.4158 34.2562 24.9933 34.2562 27.2323C34.0698 33.8663 38.0111 37.8788 44.7699 37.8788C52.8389 37.8788 59.0385 31.4213 59.0385 24.4396C59.0385 23.3568 58.9046 22.3007 58.6369 21.3016C58.636 21.3742 58.6467 21.2305 58.6369 21.3016L59.2034 18.4039L67.875 16.4118Z" fill="#6ED3EF"/>
<path d="M48.8761 4.00195L49.0948 4.0127L49.3126 4.0332C49.5544 4.0609 49.8636 4.11464 50.2032 4.22363L50.3146 4.25879L50.423 4.30078L69.3927 11.6338L69.4728 11.665L69.5529 11.7002C70.2312 11.9969 71.0354 12.537 71.6154 13.4668C72.2039 14.4103 72.3406 15.4007 72.2833 16.2012C72.226 17.0015 71.9494 17.9624 71.2325 18.8125C70.5258 19.6504 69.6525 20.0706 68.9386 20.2676L68.8546 20.291L68.7706 20.3105L62.8068 21.6797C62.9613 22.5892 63.0382 23.513 63.0382 24.4395C63.0382 31.2046 58.7495 37.3561 52.4952 40.2061C52.7481 40.3976 52.9939 40.6048 53.2296 40.8311C54.8489 42.3854 55.6803 44.4254 56.0724 46.4385C56.8365 50.3615 56.173 55.401 54.7208 60.8076L54.7198 60.8066L47.3214 89.4053V89.4063C47.2661 89.6197 47.2159 89.8242 47.1691 90.0195C47.1924 90.0087 47.2169 89.9993 47.2404 89.9883C49.251 89.0437 51.7248 87.5927 54.1837 85.623L57.4406 83.0146L59.9093 86.3789L63.1046 90.7334L65.1134 93.4697L62.7394 95.8965C55.7509 103.043 48.4154 108.017 42.0323 111.22C35.7814 114.356 30.0834 115.97 26.3732 115.97C24.5899 115.97 22.5909 115.7 20.7228 114.752C18.7669 113.76 17.2048 112.148 16.2179 109.932C14.3912 105.829 14.671 99.9726 16.6622 92.1846L23.0509 65.2646C23.0149 65.2802 22.9787 65.2958 22.9425 65.3115C20.4955 66.3768 17.8351 67.7551 15.9542 69.0449L12.4425 71.4531L10.2579 67.7969L7.44641 63.0889L5.71399 60.1885L8.28235 57.9951C15.4 51.9185 23.0507 47.0999 29.8361 43.7842C32.5675 42.4494 35.2492 41.3163 37.7609 40.4434C36.39 39.8059 35.1419 38.948 34.0607 37.8516C32.9749 36.7505 32.136 35.4879 31.5245 34.1084C31.1985 34.0889 30.8773 34.0368 30.5675 33.9512L27.3546 33.0625C26.1997 32.743 25.1374 31.9657 24.5226 30.7656L24.4152 30.5469C23.9099 29.4385 23.8356 28.1098 24.3878 26.8574L26.5851 21.751C26.3267 20.7489 26.3302 19.6763 26.629 18.5957L26.7589 18.1797C26.8694 17.863 27.004 17.5637 27.1564 17.2803L27.1368 17.2725C26.4584 16.9758 25.6534 16.4358 25.0734 15.5059C24.4848 14.5622 24.349 13.571 24.4064 12.7705L24.4386 12.4639C24.5397 11.7321 24.8297 10.9031 25.4572 10.1592C26.1637 9.32175 27.0364 8.90203 27.7501 8.70508L27.8341 8.68164L27.9191 8.66211L47.7394 4.1084L47.8527 4.08301L47.9679 4.06348C48.3194 4.00404 48.633 3.99493 48.8761 4.00195Z" stroke="white" stroke-width="8"/>
</svg>
